<svg width="177" height="60" viewBox="0 0 177 60" fill="none" xmlns="http://www.w3.org/2000/svg">
<rect width="177" height="60" rx="12" fill="#F9F9FA"/>
<rect x="12" y="12" width="36" height="36" rx="18" fill="white"/>
<path d="M40.1262 34.5748C40.0141 34.3054 39.9017 34.0136 39.7895 33.7664C39.6096 33.3624 39.4299 32.9803 39.2731 32.6212L39.2507 32.5988C37.7011 29.2304 36.0397 25.8175 34.288 22.4496L34.2207 22.3145C34.0365 21.9651 33.8569 21.6133 33.6821 21.2591C33.4574 20.8546 33.233 20.4284 32.8737 20.024C32.1552 19.1258 31.1222 18.6316 30.0221 18.6316C28.8991 18.6316 27.8888 19.1258 27.1481 19.9789C26.8111 20.3829 26.5639 20.8095 26.3396 21.214C26.1644 21.568 25.9848 21.9198 25.801 22.2694L25.7335 22.4045C24.0044 25.7724 22.3204 29.1855 20.771 32.5537L20.7484 32.5983C20.5914 32.9581 20.4115 33.3397 20.2318 33.7435C20.1196 33.9907 20.0075 34.2601 19.8953 34.5519C19.6032 35.3826 19.5133 36.1686 19.6259 36.9773C19.8729 38.6615 20.9954 40.0757 22.545 40.7049C23.1289 40.9521 23.7352 41.0642 24.3638 41.0642C24.5435 41.0642 24.7678 41.0418 24.9477 41.0192C25.6889 40.9294 26.4522 40.6827 27.1934 40.256C28.114 39.7394 28.9898 38.9987 29.9777 37.9208C30.9656 38.9987 31.8638 39.7394 32.762 40.256C33.5033 40.6827 34.2665 40.9294 35.0074 41.0192C35.1871 41.042 35.4119 41.0642 35.5915 41.0642C36.2203 41.0642 36.8489 40.9521 37.4101 40.7049C38.9822 40.0757 40.0823 38.6391 40.3295 36.9773C40.5078 36.1915 40.4181 35.4059 40.1262 34.5748ZM29.9994 35.7424C28.7867 34.2155 28.0007 32.7785 27.7315 31.5662C27.6194 31.0496 27.5967 30.6005 27.6642 30.1963C27.7089 29.8369 27.8439 29.5224 28.0236 29.253C28.4503 28.6471 29.1688 28.2651 29.9997 28.2651C30.8308 28.2651 31.5717 28.6245 31.9759 29.253C32.1556 29.5224 32.2902 29.8371 32.3355 30.1963C32.4026 30.6007 32.3802 31.072 32.268 31.5662C31.9977 32.756 31.2117 34.1933 29.9994 35.7424ZM38.9584 36.7979C38.8014 37.9655 38.0153 38.9762 36.9153 39.4253C36.3764 39.6497 35.7923 39.7172 35.2089 39.6497C34.6476 39.5821 34.0859 39.4025 33.5024 39.066C32.694 38.6164 31.8858 37.9208 30.9425 36.8876C32.4244 35.069 33.3225 33.407 33.6595 31.9254C33.8167 31.2291 33.8394 30.6005 33.7716 30.0164C33.6821 29.4551 33.4798 28.9385 33.1655 28.4894C32.469 27.4786 31.3012 26.8952 29.9992 26.8952C28.6972 26.8952 27.5294 27.5015 26.8333 28.4894C26.5191 28.9385 26.3167 29.4551 26.227 30.0164C26.1373 30.6005 26.1595 31.2515 26.3392 31.9254C26.6759 33.407 27.5965 35.0912 29.0559 36.91C28.1353 37.943 27.3044 38.6393 26.496 39.0884C25.9121 39.4253 25.351 39.605 24.7898 39.6721C24.1837 39.7396 23.5995 39.6497 23.0831 39.4478C21.9831 38.9987 21.197 37.9879 21.04 36.8203C20.9727 36.259 21.0174 35.6978 21.2421 35.069C21.3092 34.8442 21.4218 34.6199 21.534 34.3505C21.6912 33.9911 21.8704 33.6091 22.0504 33.2276L22.073 33.1829C23.6222 29.8369 25.2837 26.4239 27.0128 23.1008L27.0801 22.9657C27.26 22.6292 27.4397 22.2699 27.6192 21.9329C27.7988 21.5736 28.0007 21.2366 28.2479 20.9446C28.7194 20.4062 29.348 20.1139 30.0443 20.1139C30.7406 20.1139 31.3691 20.4062 31.8407 20.9446C32.0879 21.2373 32.2898 21.5742 32.4694 21.9329C32.6493 22.2699 32.829 22.6292 33.0083 22.9657L33.0758 23.1008C34.7785 26.4377 36.418 29.8065 37.9934 33.2053V33.2278C38.1733 33.5876 38.3303 33.9914 38.51 34.3512C38.6221 34.6201 38.7345 34.8445 38.8018 35.0692C38.9811 35.6525 39.0484 36.2142 38.9584 36.7979Z" fill="#FF5A5F"/>
<path d="M63.602 26.5L62.916 24.708H58.492L57.806 26.5H56.014L59.682 17.162H61.726L65.394 26.5H63.602ZM60.704 18.548L58.954 23.266H62.454L60.704 18.548ZM67.0999 18.618C66.6099 18.618 66.1899 18.212 66.1899 17.708C66.1899 17.204 66.6099 16.798 67.0999 16.798C67.6039 16.798 68.0099 17.204 68.0099 17.708C68.0099 18.212 67.6039 18.618 67.0999 18.618ZM66.3719 26.5V19.738H67.8419V26.5H66.3719ZM69.7489 26.5V19.738H71.2189V20.732C71.7229 20.088 72.5349 19.584 73.4169 19.584V21.04C73.2909 21.012 73.1369 20.998 72.9549 20.998C72.3389 20.998 71.5129 21.418 71.2189 21.894V26.5H69.7489ZM74.6024 26.5V17.162H76.0724V20.676C76.6044 19.962 77.3884 19.57 78.2424 19.57C79.9784 19.57 81.2384 20.942 81.2384 23.126C81.2384 25.352 79.9644 26.668 78.2424 26.668C77.3604 26.668 76.5904 26.248 76.0724 25.576V26.5H74.6024ZM76.0724 24.47C76.3944 24.974 77.1224 25.366 77.8084 25.366C78.9844 25.366 79.7264 24.442 79.7264 23.126C79.7264 21.81 78.9844 20.872 77.8084 20.872C77.1224 20.872 76.3944 21.292 76.0724 21.796V24.47ZM87.3012 26.5V22.272C87.3012 21.222 86.7692 20.872 85.9432 20.872C85.1872 20.872 84.5432 21.32 84.2072 21.782V26.5H82.7372V19.738H84.2072V20.662C84.6552 20.13 85.5232 19.57 86.5872 19.57C88.0432 19.57 88.7712 20.354 88.7712 21.74V26.5H87.3012ZM90.6805 26.5V17.162H92.1505V20.676C92.6825 19.962 93.4665 19.57 94.3205 19.57C96.0565 19.57 97.3165 20.942 97.3165 23.126C97.3165 25.352 96.0425 26.668 94.3205 26.668C93.4385 26.668 92.6685 26.248 92.1505 25.576V26.5H90.6805ZM92.1505 24.47C92.4725 24.974 93.2005 25.366 93.8865 25.366C95.0625 25.366 95.8045 24.442 95.8045 23.126C95.8045 21.81 95.0625 20.872 93.8865 20.872C93.2005 20.872 92.4725 21.292 92.1505 21.796V24.47Z" fill="black"/>
<path d="M62.516 43.5L61.928 41.964H58.136L57.548 43.5H56.012L59.156 35.496H60.908L64.052 43.5H62.516ZM60.032 36.684L58.532 40.728H61.532L60.032 36.684ZM64.9262 43.5V35.496H68.8622C70.3262 35.496 71.1422 36.408 71.1422 37.536C71.1422 38.544 70.4942 39.216 69.7502 39.372C70.6022 39.504 71.2982 40.356 71.2982 41.34C71.2982 42.576 70.4702 43.5 68.9702 43.5H64.9262ZM66.3302 38.808H68.5742C69.2942 38.808 69.7022 38.376 69.7022 37.776C69.7022 37.176 69.2942 36.732 68.5742 36.732H66.3302V38.808ZM66.3302 42.264H68.6342C69.4022 42.264 69.8582 41.844 69.8582 41.148C69.8582 40.548 69.4382 40.044 68.6342 40.044H66.3302V42.264ZM78.2875 43.5L74.1115 37.668V43.5H72.7075V35.496H74.1475L78.2395 41.172V35.496H79.6435V43.5H78.2875ZM81.3442 43.5V35.496H85.2802C86.7442 35.496 87.5602 36.408 87.5602 37.536C87.5602 38.544 86.9122 39.216 86.1682 39.372C87.0202 39.504 87.7162 40.356 87.7162 41.34C87.7162 42.576 86.8882 43.5 85.3882 43.5H81.3442ZM82.7482 38.808H84.9922C85.7122 38.808 86.1202 38.376 86.1202 37.776C86.1202 37.176 85.7122 36.732 84.9922 36.732H82.7482V38.808ZM82.7482 42.264H85.0522C85.8202 42.264 86.2762 41.844 86.2762 41.148C86.2762 40.548 85.8562 40.044 85.0522 40.044H82.7482V42.264Z" fill="black" fill-opacity="0.3"/>
</svg>
