<svg width="177" height="60" viewBox="0 0 177 60" fill="none" xmlns="http://www.w3.org/2000/svg">
<rect width="177" height="60" rx="12" fill="#F9F9FA"/>
<rect x="12" y="12" width="36" height="36" rx="18" fill="white"/>
<path d="M35.6901 39.2498C34.5556 40.3742 33.304 40.1989 32.1109 39.6688C30.8425 39.128 29.6829 39.0938 28.3433 39.6688C26.6751 40.4042 25.7897 40.1904 24.7851 39.2498C19.1128 33.2859 19.95 24.2009 26.3967 23.8589C27.9603 23.9444 29.055 24.7418 29.9759 24.808C31.3448 24.5237 32.6551 23.7093 34.1203 23.8162C35.8805 23.9615 37.1971 24.6712 38.0762 25.9474C34.4552 28.1705 35.3133 33.0443 38.6392 34.4124C37.9736 36.1973 37.1197 37.9608 35.688 39.2648L35.6901 39.2498ZM29.8503 23.7948C29.6808 21.1441 31.7844 18.9638 34.204 18.75C34.5368 21.8068 31.483 24.0941 29.8503 23.7948Z" fill="black"/>
<path d="M63.602 26.5L62.916 24.708H58.492L57.806 26.5H56.014L59.682 17.162H61.726L65.394 26.5H63.602ZM60.704 18.548L58.954 23.266H62.454L60.704 18.548ZM67.8419 29.076H66.3719V19.738H67.8419V20.662C68.3459 19.99 69.1299 19.57 70.0119 19.57C71.7619 19.57 73.0079 20.886 73.0079 23.112C73.0079 25.338 71.7619 26.668 70.0119 26.668C69.1579 26.668 68.3879 26.29 67.8419 25.562V29.076ZM71.4819 23.112C71.4819 21.81 70.7399 20.872 69.5779 20.872C68.8919 20.872 68.1639 21.278 67.8419 21.782V24.456C68.1639 24.946 68.8919 25.366 69.5779 25.366C70.7399 25.366 71.4819 24.428 71.4819 23.112ZM75.963 29.076H74.493V19.738H75.963V20.662C76.467 19.99 77.251 19.57 78.133 19.57C79.883 19.57 81.129 20.886 81.129 23.112C81.129 25.338 79.883 26.668 78.133 26.668C77.279 26.668 76.509 26.29 75.963 25.562V29.076ZM79.603 23.112C79.603 21.81 78.861 20.872 77.699 20.872C77.013 20.872 76.285 21.278 75.963 21.782V24.456C76.285 24.946 77.013 25.366 77.699 25.366C78.861 25.366 79.603 24.428 79.603 23.112ZM82.6141 26.5V17.162H84.0841V26.5H82.6141ZM85.5711 23.112C85.5711 21.152 86.9991 19.57 89.0011 19.57C91.0311 19.57 92.3331 21.124 92.3331 23.252V23.602H87.1111C87.2231 24.624 87.9931 25.464 89.2671 25.464C89.9251 25.464 90.7091 25.198 91.1851 24.722L91.8571 25.688C91.1851 26.332 90.1911 26.668 89.1131 26.668C87.0831 26.668 85.5711 25.254 85.5711 23.112ZM89.0011 20.774C87.7411 20.774 87.1671 21.74 87.0971 22.566H90.9051C90.8771 21.768 90.3311 20.774 89.0011 20.774Z" fill="black"/>
<path d="M62.516 43.5L61.928 41.964H58.136L57.548 43.5H56.012L59.156 35.496H60.908L64.052 43.5H62.516ZM60.032 36.684L58.532 40.728H61.532L60.032 36.684ZM70.5902 43.5L70.0022 41.964H66.2102L65.6222 43.5H64.0862L67.2302 35.496H68.9822L72.1262 43.5H70.5902ZM68.1062 36.684L66.6062 40.728H69.6062L68.1062 36.684ZM73.0004 43.5V35.496H76.5164C78.1964 35.496 79.1324 36.648 79.1324 38.004C79.1324 39.36 78.1844 40.512 76.5164 40.512H74.4044V43.5H73.0004ZM77.6924 38.004C77.6924 37.236 77.1164 36.732 76.3244 36.732H74.4044V39.276H76.3244C77.1164 39.276 77.6924 38.772 77.6924 38.004ZM80.3012 43.5V35.496H81.7052V42.264H85.2332V43.5H80.3012Z" fill="black" fill-opacity="0.3"/>
</svg>
