<svg width="177" height="60" viewBox="0 0 177 60" fill="none" xmlns="http://www.w3.org/2000/svg">
<rect width="177" height="60" rx="12" fill="#F9F9FA"/>
<g clip-path="url(#clip0_255_680)">
<rect x="12" y="12" width="36" height="36" rx="18" fill="white"/>
<path d="M27.2095 35.5034L27.2054 36.4799L27.2766 36.4921C27.5005 36.5339 27.7268 36.5629 27.9543 36.5792C28.1533 36.5978 28.3537 36.6014 28.5532 36.591C28.744 36.5774 28.9326 36.5416 29.1153 36.4849C29.3297 36.4241 29.5287 36.3181 29.6983 36.1739C29.8515 36.0434 29.968 35.8756 30.0378 35.687C30.1593 35.3711 30.157 35.0211 30.031 34.7069C29.9648 34.5442 29.8601 34.3991 29.7264 34.2849C29.5972 34.1684 29.4449 34.0795 29.2798 34.0247L28.5436 33.7513C28.4557 33.7142 28.3841 33.6457 28.3424 33.5596C28.3102 33.488 28.3129 33.405 28.3505 33.3361C28.3637 33.3116 28.3804 33.2894 28.3995 33.2699C28.4222 33.2472 28.4475 33.2268 28.4747 33.2101C28.4856 33.2033 28.497 33.1969 28.5083 33.191C28.5908 33.1502 28.6796 33.1244 28.7708 33.1144C28.9267 33.0917 29.0849 33.0936 29.2404 33.1194C29.424 33.1393 29.6058 33.172 29.7849 33.2169L29.8229 33.2255V32.3247L29.7527 32.3098C29.57 32.2662 29.3855 32.2331 29.1987 32.2109C28.9571 32.1788 28.7123 32.1778 28.4707 32.2078C28.1642 32.2359 27.8727 32.3528 27.632 32.545C27.4688 32.6729 27.3451 32.8442 27.2739 33.0387C27.1669 33.3352 27.1664 33.6598 27.273 33.9567C27.3278 34.104 27.4162 34.2373 27.5305 34.3452C27.6297 34.4408 27.7417 34.522 27.8637 34.5868C28.0241 34.6729 28.1941 34.74 28.3705 34.7858C28.4285 34.8031 28.4865 34.8216 28.5441 34.8411L28.6311 34.8733C28.6393 34.8765 28.6479 34.8801 28.6561 34.8833C28.7422 34.9141 28.8206 34.9626 28.8868 35.0256C28.9326 35.0687 28.968 35.1217 28.9902 35.1802C29.0038 35.2342 29.0038 35.2904 28.9906 35.3443C28.963 35.4314 28.9027 35.5039 28.822 35.5465C28.7345 35.5923 28.6393 35.6218 28.5409 35.6345C28.3972 35.6571 28.2508 35.6648 28.1057 35.6562C27.9149 35.6417 27.7254 35.6163 27.5377 35.5805C27.4393 35.5606 27.3419 35.5374 27.2449 35.5121L27.2095 35.5034Z" fill="#00BCEB"/>
<path d="M23.2059 36.4443V35.3105L23.1837 35.3201C22.928 35.4438 22.6501 35.5145 22.3663 35.5277C22.0717 35.5508 21.7788 35.4642 21.5436 35.2851C21.3758 35.1555 21.2507 34.9782 21.1854 34.7765C21.1133 34.5567 21.1047 34.3209 21.1614 34.0965C21.214 33.8671 21.3423 33.6622 21.5259 33.5149C21.6886 33.3785 21.8881 33.2928 22.0989 33.2678C22.472 33.2266 22.8487 33.2973 23.181 33.4709L23.2054 33.4836V32.3435L23.1538 32.3295C22.821 32.2225 22.4715 32.1767 22.122 32.1944C21.8038 32.2025 21.4905 32.2742 21.2004 32.4052C20.9075 32.5394 20.6496 32.7388 20.4461 32.9881C19.8096 33.7933 19.7928 34.9252 20.4048 35.7489C20.7058 36.1342 21.1288 36.4062 21.6043 36.52C22.1057 36.642 22.6306 36.6234 23.122 36.467L23.2059 36.4443Z" fill="#00BCEB"/>
<path d="M25.7558 36.5195V32.2668H24.6837V36.5195H25.7558Z" fill="#00BCEB"/>
<path d="M41.6253 36.0253V35.9609H41.1715V36.0253H41.3601V36.5194H41.4363V36.0253H41.6253Z" fill="#00BCEB"/>
<path d="M41.6693 36.5194H41.7419V36.0734H41.7514L41.9146 36.5194H41.9871L42.1635 36.0521V36.5194H42.2396V35.9609H42.1218L41.9563 36.4211L41.789 35.9609H41.6693V36.5194Z" fill="#00BCEB"/>
<path d="M17.76 28.849C17.77 28.9828 17.8303 29.1079 17.9286 29.1995C18.027 29.2906 18.1562 29.3414 18.2904 29.3414C18.4246 29.3414 18.5538 29.2906 18.6522 29.1995C18.7505 29.1083 18.8108 28.9832 18.8208 28.849V27.6704C18.8154 27.5335 18.7573 27.4038 18.6585 27.3086C18.5597 27.2134 18.4278 27.1604 18.2909 27.1604C18.1535 27.1604 18.022 27.2134 17.9232 27.3086C17.8235 27.4038 17.7654 27.5335 17.76 27.6708V28.849Z" fill="#00BCEB"/>
<path d="M20.6953 28.8492C20.7053 28.983 20.7655 29.1081 20.8639 29.1997C20.9623 29.2908 21.0915 29.3416 21.2257 29.3416C21.3599 29.3416 21.4891 29.2908 21.5874 29.1997C21.6858 29.1085 21.7461 28.9834 21.7561 28.8492V26.2073C21.7506 26.0704 21.6926 25.9407 21.5938 25.8455C21.4949 25.7503 21.363 25.6973 21.2261 25.6973C21.0888 25.6973 20.9573 25.7503 20.8585 25.8455C20.7597 25.9407 20.7016 26.0704 20.6962 26.2073V28.8492" fill="#00BCEB"/>
<path d="M23.6151 29.9135C23.6251 30.0473 23.6854 30.1724 23.7837 30.2635C23.8821 30.3546 24.0113 30.4054 24.1455 30.4054C24.2797 30.4054 24.4089 30.3546 24.5073 30.2635C24.6056 30.1724 24.6659 30.0473 24.6759 29.9135V24.1985C24.6705 24.0616 24.6124 23.9319 24.5136 23.8367C24.4148 23.7415 24.2829 23.6885 24.146 23.6885C24.0086 23.6885 23.8771 23.7415 23.7783 23.8367C23.6795 23.9319 23.621 24.0616 23.616 24.1985V29.9135" fill="#00BCEB"/>
<path d="M26.5499 28.8492C26.5599 28.983 26.6202 29.1081 26.7185 29.1997C26.8169 29.2908 26.9461 29.3416 27.0803 29.3416C27.2145 29.3416 27.3437 29.2908 27.442 29.1997C27.5404 29.1085 27.6007 28.9834 27.6107 28.8492V26.2073C27.6052 26.0704 27.5472 25.9407 27.4484 25.8455C27.3496 25.7503 27.2176 25.6973 27.0807 25.6973C26.9438 25.6973 26.8119 25.7503 26.7131 25.8455C26.6143 25.9407 26.5562 26.0704 26.5508 26.2073V28.8492" fill="#00BCEB"/>
<path d="M29.4721 28.849C29.4821 28.9828 29.5424 29.1079 29.6408 29.1995C29.7391 29.2906 29.8683 29.3414 30.0025 29.3414C30.1367 29.3414 30.2659 29.2906 30.3643 29.1995C30.4627 29.1083 30.5229 28.9832 30.5329 28.849V27.6704C30.5275 27.5335 30.4695 27.4038 30.3706 27.3086C30.2718 27.2134 30.1399 27.1604 30.003 27.1604C29.8661 27.1604 29.7342 27.2134 29.6353 27.3086C29.5365 27.4038 29.4785 27.5335 29.473 27.6704V28.849" fill="#00BCEB"/>
<path d="M32.4047 28.8492C32.4147 28.983 32.475 29.1081 32.5734 29.1997C32.6717 29.2908 32.8009 29.3416 32.9351 29.3416C33.0693 29.3416 33.1985 29.2908 33.2969 29.1997C33.3952 29.1085 33.4555 28.9834 33.4655 28.8492V26.2073C33.4601 26.0704 33.402 25.9407 33.3032 25.8455C33.2044 25.7503 33.0725 25.6973 32.9356 25.6973C32.7982 25.6973 32.6667 25.7503 32.5679 25.8455C32.4691 25.9407 32.4111 26.0704 32.4056 26.2073V28.8492" fill="#00BCEB"/>
<path d="M35.3254 29.9135C35.3354 30.0473 35.3957 30.1724 35.494 30.2635C35.5924 30.3546 35.7216 30.4054 35.8558 30.4054C35.99 30.4054 36.1192 30.3546 36.2176 30.2635C36.3159 30.1724 36.3762 30.0473 36.3862 29.9135V24.1985C36.3808 24.0616 36.3227 23.9319 36.2239 23.8367C36.1246 23.7415 35.9927 23.6885 35.8558 23.6885C35.7189 23.6885 35.587 23.7415 35.4882 23.8367C35.3893 23.9319 35.3313 24.0616 35.3259 24.1985V29.9135" fill="#00BCEB"/>
<path d="M38.2558 28.8492C38.2657 28.983 38.326 29.1081 38.4244 29.1997C38.5228 29.2908 38.652 29.3416 38.7862 29.3416C38.9203 29.3416 39.0495 29.2908 39.1479 29.1997C39.2463 29.1085 39.3066 28.9834 39.3165 28.8492V26.2073C39.3111 26.0704 39.2531 25.9407 39.1543 25.8455C39.0554 25.7503 38.9235 25.6973 38.7866 25.6973C38.6493 25.6973 38.5178 25.7503 38.419 25.8455C38.3201 25.9407 38.2621 26.0704 38.2567 26.2073V28.8492" fill="#00BCEB"/>
<path d="M41.1792 28.849C41.1892 28.9828 41.2495 29.1079 41.3479 29.1995C41.4462 29.2906 41.5754 29.3414 41.7096 29.3414C41.8438 29.3414 41.973 29.2906 42.0714 29.1995C42.1697 29.1083 42.23 28.9832 42.24 28.849V27.6704C42.2346 27.5335 42.1765 27.4038 42.0777 27.3086C41.9789 27.2134 41.847 27.1604 41.7101 27.1604C41.5732 27.1604 41.4413 27.2134 41.3424 27.3086C41.2436 27.4038 41.1851 27.5335 41.1801 27.6704V28.849" fill="#00BCEB"/>
<path d="M34.4093 36.4443V35.3105L34.387 35.3201C34.1314 35.4438 33.8535 35.5145 33.5697 35.5277C33.275 35.5508 32.9822 35.4642 32.7474 35.2851C32.5796 35.1555 32.4545 34.9782 32.3892 34.7765C32.3172 34.5567 32.3085 34.3209 32.3652 34.0965C32.4178 33.8671 32.5461 33.6622 32.7301 33.5149C32.8929 33.3785 33.0923 33.2928 33.3031 33.2678C33.6762 33.2266 34.0529 33.2973 34.3857 33.4709L34.4102 33.4836V32.3435L34.3585 32.3295C34.0257 32.2225 33.6762 32.1767 33.3267 32.1944C33.0085 32.2025 32.6952 32.2742 32.4051 32.4052C32.1122 32.5394 31.8543 32.7388 31.6508 32.9881C31.0143 33.7933 30.9975 34.9252 31.6095 35.7489C31.9105 36.1342 32.3335 36.4062 32.809 36.52C33.3104 36.642 33.8353 36.6234 34.3267 36.467L34.4093 36.4443Z" fill="#00BCEB"/>
<path d="M35.5389 34.3947C35.5494 35.067 35.8613 35.699 36.3889 36.1156C36.9166 36.5322 37.6034 36.6899 38.2598 36.5444C39.151 36.3767 39.8455 35.6749 40.0047 34.7823C40.1638 33.8893 39.754 32.9912 38.9751 32.5261C38.2875 32.1009 37.4248 32.0764 36.7144 32.4627C36.0041 32.8494 35.5557 33.5865 35.5389 34.3947ZM37.0957 33.5225C37.3273 33.3376 37.6233 33.2519 37.918 33.285C38.2127 33.3181 38.4824 33.4668 38.6673 33.6984C38.8523 33.9301 38.938 34.2261 38.9049 34.5208C38.8718 34.8154 38.7231 35.0852 38.4915 35.2701C38.2598 35.4551 37.9638 35.5407 37.6691 35.5077C37.3745 35.4746 37.1047 35.3259 36.9198 35.0942C36.7348 34.8626 36.6491 34.5665 36.6822 34.2719C36.7149 33.9772 36.8636 33.7075 37.0957 33.5225Z" fill="#00BCEB"/>
</g>
<path d="M56.994 26.5V17.162H60.466C63.378 17.162 65.352 19.094 65.352 21.838C65.352 24.582 63.378 26.5 60.466 26.5H56.994ZM58.632 25.058H60.466C62.496 25.058 63.672 23.602 63.672 21.838C63.672 20.032 62.552 18.604 60.466 18.604H58.632V25.058ZM67.6195 18.618C67.1295 18.618 66.7095 18.212 66.7095 17.708C66.7095 17.204 67.1295 16.798 67.6195 16.798C68.1235 16.798 68.5295 17.204 68.5295 17.708C68.5295 18.212 68.1235 18.618 67.6195 18.618ZM66.8915 26.5V19.738H68.3615V26.5H66.8915ZM69.6804 25.618L70.3524 24.554C70.8284 25.044 71.7664 25.506 72.6484 25.506C73.5304 25.506 73.9784 25.184 73.9784 24.68C73.9784 24.092 73.2644 23.882 72.4384 23.7C71.2764 23.448 69.8904 23.14 69.8904 21.628C69.8904 20.522 70.8424 19.57 72.5504 19.57C73.6984 19.57 74.5664 19.976 75.1824 20.522L74.5664 21.558C74.1604 21.096 73.4044 20.746 72.5644 20.746C71.7944 20.746 71.3044 21.026 71.3044 21.502C71.3044 22.02 71.9764 22.202 72.7744 22.384C73.9504 22.636 75.3924 22.972 75.3924 24.568C75.3924 25.758 74.3984 26.668 72.5784 26.668C71.4304 26.668 70.3804 26.304 69.6804 25.618ZM81.4359 26.5V22.272C81.4359 21.222 80.9039 20.872 80.0779 20.872C79.3219 20.872 78.6779 21.32 78.3419 21.782V26.5H76.8719V19.738H78.3419V20.662C78.7899 20.13 79.6579 19.57 80.7219 19.57C82.1779 19.57 82.9059 20.354 82.9059 21.74V26.5H81.4359ZM84.3953 23.112C84.3953 21.152 85.8233 19.57 87.8253 19.57C89.8553 19.57 91.1573 21.124 91.1573 23.252V23.602H85.9353C86.0473 24.624 86.8173 25.464 88.0913 25.464C88.7493 25.464 89.5333 25.198 90.0093 24.722L90.6813 25.688C90.0093 26.332 89.0153 26.668 87.9373 26.668C85.9073 26.668 84.3953 25.254 84.3953 23.112ZM87.8253 20.774C86.5653 20.774 85.9913 21.74 85.9213 22.566H89.7293C89.7013 21.768 89.1553 20.774 87.8253 20.774ZM92.5383 27.83C92.6923 27.9 92.9303 27.942 93.0983 27.942C93.5603 27.942 93.8683 27.802 94.0643 27.354L94.4003 26.584L91.6282 19.738H93.1963L95.1703 24.806L97.1443 19.738H98.7262L95.4643 27.718C95.0023 28.866 94.1903 29.23 93.1403 29.244C92.9303 29.244 92.5243 29.202 92.3143 29.146L92.5383 27.83Z" fill="black"/>
<path d="M56.852 43.5V35.496H59.828C62.324 35.496 64.016 37.152 64.016 39.504C64.016 41.856 62.324 43.5 59.828 43.5H56.852ZM58.256 42.264H59.828C61.568 42.264 62.576 41.016 62.576 39.504C62.576 37.956 61.616 36.732 59.828 36.732H58.256V42.264ZM65.3715 43.5V35.496H66.7755V43.5H65.3715ZM67.961 42.372L68.741 41.292C69.293 41.88 70.157 42.396 71.273 42.396C72.425 42.396 72.881 41.832 72.881 41.304C72.881 40.584 72.029 40.368 71.057 40.116C69.749 39.792 68.213 39.408 68.213 37.716C68.213 36.396 69.377 35.376 71.129 35.376C72.377 35.376 73.385 35.772 74.129 36.492L73.325 37.536C72.701 36.912 71.849 36.624 71.009 36.624C70.181 36.624 69.653 37.02 69.653 37.62C69.653 38.244 70.469 38.448 71.417 38.688C72.737 39.024 74.309 39.432 74.309 41.172C74.309 42.504 73.373 43.644 71.213 43.644C69.737 43.644 68.669 43.128 67.961 42.372Z" fill="black" fill-opacity="0.3"/>
<defs>
<clipPath id="clip0_255_680">
<rect x="12" y="12" width="36" height="36" rx="18" fill="white"/>
</clipPath>
</defs>
</svg>
