<svg width="527" height="101" viewBox="0 0 527 101" fill="none" xmlns="http://www.w3.org/2000/svg">
<g filter="url(#filter0_b_255_294)">
<g clip-path="url(#clip0_255_294)">
<mask id="mask0_255_294" style="mask-type:luminance" maskUnits="userSpaceOnUse" x="16" y="22" width="62" height="56">
<path d="M77.2029 22.7881H16.4067V77.277H77.2029V22.7881Z" fill="white"/>
</mask>
<g mask="url(#mask0_255_294)">
<path d="M43.1727 23.4568C43.155 23.4458 43.1356 23.4391 43.1139 23.4382C41.9997 23.1352 40.8073 23.1493 39.6764 23.3494C38.5114 23.5558 37.353 23.9803 36.3811 24.6638C36.1903 24.7976 36.006 24.9421 35.8324 25.0976C35.6124 25.2946 35.3761 25.383 35.1061 25.5014C34.5035 25.7651 33.9106 26.0501 33.3292 26.3576C32.2084 26.95 31.1305 27.6237 30.1095 28.3756C26.1251 31.3113 23.1399 35.4106 21.4598 40.0578C19.6507 45.061 19.349 50.5679 20.3863 55.7729C21.3547 60.6344 23.5115 65.2828 26.7665 69.0366C29.943 72.6999 34.136 75.3864 38.8065 76.699C39.4308 76.8743 40.0616 77.0259 40.6969 77.1536C40.9823 77.211 41.8509 77.5043 41.7943 76.9088C41.7819 76.7807 41.6993 76.676 41.5836 76.6243C41.4519 76.5651 41.2779 76.5603 41.1356 76.5333C40.943 76.4966 40.7508 76.4578 40.5591 76.4167C39.9308 76.2824 39.3079 76.1242 38.6916 75.9427C36.3298 75.2455 34.0803 74.1892 32.041 72.8086C27.9668 70.0501 24.8461 66.0515 22.9 61.5524C20.7976 56.6914 20.0377 51.2398 20.7313 45.9896C21.4037 40.9016 23.4951 36.0009 26.9441 32.1745C28.6242 30.3111 30.5968 28.7255 32.7647 27.4642C33.3323 27.1338 33.9137 26.8276 34.5053 26.5431C34.8083 26.3973 35.1145 26.2568 35.4224 26.1212C35.5616 26.0598 35.7003 25.9891 35.8439 25.9383C35.9985 25.884 36.1584 25.8941 36.3206 25.8862C37.5739 25.8226 38.8175 25.5314 40.0073 25.1453C41.1113 24.787 42.1994 24.3315 43.1784 23.7029C43.1815 23.7007 43.1846 23.6985 43.1877 23.6958C43.2243 23.6684 43.2412 23.6317 43.2429 23.5946C43.2429 23.592 43.2429 23.5893 43.2433 23.5862C43.2433 23.5854 43.2433 23.584 43.2433 23.5831C43.246 23.5332 43.2248 23.4829 43.1727 23.4568Z" fill="#F2F2F2"/>
<path d="M34.991 27.3093C33.865 27.2731 32.5758 27.6976 31.5469 28.4164C31.9131 28.9942 32.6819 29.2916 33.739 29.2668C34.7997 29.2408 35.9608 28.916 37.0772 28.431C36.8337 27.8041 36.1212 27.3437 34.991 27.3093Z" fill="#F2F2F2"/>
<path d="M33.8325 25.1263C34.557 24.2074 34.7978 23.3848 34.4669 22.7866C33.0373 23.353 31.8193 24.2693 31.1734 25.2571C30.5245 26.2471 30.5421 27.0843 30.9711 27.6118C32.0623 26.9054 33.1049 26.047 33.8325 25.1263Z" fill="#F2F2F2"/>
<path d="M34.7992 74.0429C35.2436 73.2923 35.146 72.2841 34.5973 71.1903C34.0442 70.0934 33.1717 69.0993 32.1887 68.2847C31.606 68.9182 31.3877 69.9131 31.8609 71.102C32.3292 72.2864 33.4332 73.3894 34.7992 74.0429Z" fill="#F2F2F2"/>
<path d="M27.0542 74.4545C28.3345 75.6031 29.9793 76.3573 31.4345 76.4488C32.8955 76.5433 33.8365 76.0087 34.1846 75.2214C32.7824 74.4859 31.3135 73.9054 29.9479 73.7026C28.5876 73.5025 27.5707 73.7507 27.0542 74.4545Z" fill="#F2F2F2"/>
<path d="M30.0366 70.8514C30.6277 70.213 30.7726 69.2066 30.5027 68.02C30.2296 66.8294 29.6195 65.6719 28.8504 64.6655C28.1515 65.1599 27.7282 66.085 27.9182 67.3476C28.1047 68.605 28.9065 69.9198 30.0366 70.8514Z" fill="#F2F2F2"/>
<path d="M29.1867 71.8715C28.0411 70.8519 26.7754 69.97 25.5137 69.4801C24.2564 68.9937 23.2218 69.0193 22.5728 69.5968C23.5557 70.9923 24.9553 72.0809 26.3111 72.4821C27.6714 72.8876 28.676 72.5664 29.1867 71.8715Z" fill="#F2F2F2"/>
<path d="M27.2086 64.0672C27.1979 62.8713 26.852 61.6347 26.3135 60.5117C25.5496 60.8396 24.9665 61.637 24.8944 62.8828C24.8202 64.1229 25.3097 65.5446 26.1716 66.6729C26.8631 66.1887 27.2169 65.2583 27.2086 64.0672Z" fill="#F2F2F2"/>
<path d="M25.1606 67.4635C24.304 66.2495 23.2866 65.1442 22.1861 64.4166C21.0891 63.693 20.096 63.5065 19.364 63.9235C20.0262 65.4535 21.1298 66.7784 22.3239 67.4433C23.5221 68.1126 24.531 68.0189 25.1606 67.4635Z" fill="#F2F2F2"/>
<path d="M24.8588 59.5429C25.0815 58.3898 24.9825 57.1263 24.671 55.9326C23.871 56.0908 23.1598 56.7384 22.854 57.9215C22.5474 59.0989 22.7453 60.5669 23.3488 61.8318C24.1091 61.511 24.6348 60.6911 24.8588 59.5429Z" fill="#F2F2F2"/>
<path d="M22.2241 62.3774C21.6436 61.0326 20.8758 59.7599 19.952 58.8343C19.0304 57.9132 18.1045 57.5315 17.319 57.7815C17.6728 59.3848 18.4822 60.8829 19.5014 61.7682C20.5228 62.6588 21.5089 62.7795 22.2241 62.3774Z" fill="#F2F2F2"/>
<path d="M23.5073 54.7701C23.9394 53.6882 24.0737 52.4326 23.9852 51.2018C23.1688 51.1925 22.3498 51.6807 21.8325 52.775C21.3147 53.8635 21.24 55.3391 21.5983 56.6994C22.4055 56.5417 23.0748 55.8468 23.5073 54.7701Z" fill="#F2F2F2"/>
<path d="M20.3898 57.0033C20.0695 55.5698 19.5473 54.1684 18.8074 53.0741C18.0687 51.9851 17.2271 51.4223 16.408 51.5063C16.4628 53.1461 16.985 54.7763 17.8244 55.8503C18.6651 56.93 19.6114 57.2503 20.3898 57.0033Z" fill="#F2F2F2"/>
<path d="M20.8116 51.3009C21.628 51.3124 22.4082 50.7756 23.0263 49.8188C23.6448 48.857 24.0048 47.6651 24.1462 46.4519C23.3514 46.2779 22.4621 46.5862 21.7566 47.5431C21.0519 48.4943 20.71 49.9098 20.8116 51.3009Z" fill="#F2F2F2"/>
<path d="M19.5794 51.3482C19.5282 49.8938 19.2737 48.4297 18.752 47.2197C18.2307 46.0149 17.5136 45.2992 16.699 45.2153C16.4503 46.815 16.6632 48.4991 17.2861 49.7096C17.9095 50.9258 18.7749 51.4285 19.5794 51.3482Z" fill="#F2F2F2"/>
<path d="M23.4934 44.908C24.2833 44.0928 24.8652 42.9999 25.2429 41.841C24.4946 41.5089 23.5566 41.6299 22.677 42.4225C21.7996 43.2097 21.1953 44.5254 21.0367 45.9068C21.8381 46.0844 22.7053 45.7181 23.4934 44.908Z" fill="#F2F2F2"/>
<path d="M19.8155 45.7026C20.0351 44.2695 20.062 42.7851 19.7828 41.4946C19.5023 40.209 18.9381 39.363 18.1518 39.1147C17.5916 40.63 17.4802 42.3212 17.8655 43.6324C18.2503 44.9494 19.0093 45.6179 19.8155 45.7026Z" fill="#F2F2F2"/>
<path d="M24.8411 40.1611C25.7618 39.5373 26.5415 38.6029 27.1473 37.5643C26.4929 37.1004 25.5599 37.0346 24.5517 37.6208C23.5462 38.2022 22.7046 39.3393 22.2849 40.6268C23.0205 40.9567 23.9235 40.7805 24.8411 40.1611Z" fill="#F2F2F2"/>
<path d="M21.1583 40.1893C21.6461 38.8661 21.9655 37.4542 21.9553 36.1676C21.9434 34.8851 21.5723 33.9671 20.8637 33.5762C20.0141 34.9116 19.5723 36.5003 19.6868 37.8265C19.7994 39.1576 20.4007 39.9463 21.1583 40.1893Z" fill="#F2F2F2"/>
<path d="M29.7795 33.7927C29.2587 33.2435 28.3861 33.0173 27.3122 33.3778C26.2413 33.7348 25.2172 34.6316 24.5643 35.7431C25.185 36.1893 26.0637 36.199 27.0542 35.7935C28.0477 35.3849 28.9804 34.655 29.7795 33.7927Z" fill="#F2F2F2"/>
<path d="M23.611 35.1319C24.3328 34.0036 24.9218 32.756 25.178 31.5636C25.4316 30.3747 25.2725 29.4576 24.684 28.9668C23.6066 30.0452 22.871 31.4258 22.7111 32.6703C22.5485 33.9188 22.9523 34.7621 23.611 35.1319Z" fill="#F2F2F2"/>
<path d="M30.884 29.927C29.7548 30.0781 28.5615 30.7466 27.6925 31.6827C28.1983 32.2195 29.0452 32.3891 30.0972 32.1801C31.1531 31.969 32.2292 31.4371 33.2162 30.7532C32.8283 30.1391 32.0171 29.7733 30.884 29.927Z" fill="#F2F2F2"/>
<path d="M26.9075 30.9343C27.845 29.9964 28.6905 28.9176 29.2048 27.8303C29.7159 26.7462 29.7663 25.8463 29.298 25.2764C27.9996 26.11 26.9844 27.286 26.562 28.436C26.137 29.5895 26.35 30.4629 26.9075 30.9343Z" fill="#F2F2F2"/>
<path d="M50.4408 23.4568C50.4585 23.4458 50.4779 23.4391 50.4995 23.4382C51.6137 23.1352 52.8061 23.1493 53.937 23.3494C55.102 23.5558 56.2604 23.9803 57.2323 24.6638C57.4232 24.7976 57.6074 24.9421 57.781 25.0976C58.0011 25.2946 58.2374 25.383 58.5073 25.5014C59.1099 25.7651 59.7028 26.0501 60.2842 26.3576C61.405 26.95 62.483 27.6237 63.5039 28.3756C67.4884 31.3113 70.4736 35.4106 72.1536 40.0578C73.9627 45.061 74.2645 50.5679 73.2272 55.7729C72.2587 60.6344 70.102 65.2828 66.8469 69.0366C63.6705 72.6999 59.4775 75.3864 54.8069 76.699C54.1827 76.8743 53.5518 77.0259 52.9166 77.1536C52.6311 77.211 51.7626 77.5043 51.8192 76.9088C51.8315 76.7807 51.9141 76.676 52.0299 76.6243C52.1615 76.5651 52.3356 76.5603 52.4779 76.5333C52.6705 76.4966 52.8626 76.4578 53.0544 76.4167C53.6826 76.2824 54.3055 76.1242 54.9218 75.9427C57.2836 75.2455 59.5332 74.1892 61.5724 72.8086C65.6466 70.0501 68.7673 66.0515 70.7134 61.5524C72.8159 56.6914 73.5758 51.2398 72.8822 45.9896C72.2097 40.9016 70.1183 36.0009 66.6693 32.1745C64.9892 30.3111 63.0166 28.7255 60.8488 27.4642C60.2811 27.1338 59.6997 26.8276 59.1081 26.5431C58.8051 26.3973 58.499 26.2568 58.191 26.1212C58.0518 26.0598 57.9131 25.9891 57.7695 25.9383C57.6149 25.884 57.455 25.8941 57.2929 25.8862C56.0395 25.8226 54.7959 25.5314 53.6062 25.1453C52.5021 24.787 51.414 24.3315 50.435 23.7029C50.4319 23.7007 50.4289 23.6985 50.4258 23.6958C50.3891 23.6684 50.3723 23.6317 50.3705 23.5946C50.3705 23.592 50.3705 23.5893 50.3701 23.5862C50.3701 23.5854 50.3701 23.584 50.3701 23.5831C50.3674 23.5332 50.3886 23.4829 50.4408 23.4568Z" fill="#F2F2F2"/>
<path d="M58.6233 27.3093C59.7495 27.2731 61.0386 27.6976 62.0675 28.4164C61.7013 28.9942 60.9326 29.2916 59.8754 29.2668C58.8146 29.2408 57.6536 28.916 56.5372 28.431C56.7807 27.8041 57.4933 27.3437 58.6233 27.3093Z" fill="#F2F2F2"/>
<path d="M59.7823 25.1263C59.0578 24.2074 58.8171 23.3848 59.1479 22.7866C60.5776 23.353 61.7956 24.2693 62.4414 25.2571C63.0904 26.2471 63.0728 27.0843 62.6438 27.6118C61.5526 26.9054 60.51 26.047 59.7823 25.1263Z" fill="#F2F2F2"/>
<path d="M58.8146 74.0429C58.3702 73.2923 58.4679 72.2841 59.0165 71.1903C59.5697 70.0934 60.4422 69.0993 61.4251 68.2847C62.0079 68.9182 62.2261 69.9131 61.7529 71.102C61.2842 72.2864 60.1807 73.3894 58.8146 74.0429Z" fill="#F2F2F2"/>
<path d="M66.559 74.4545C65.2786 75.6031 63.6339 76.3573 62.1787 76.4488C60.7177 76.5433 59.7767 76.0087 59.4286 75.2214C60.8307 74.4859 62.2997 73.9054 63.6653 73.7026C65.0255 73.5025 66.0425 73.7507 66.559 74.4545Z" fill="#F2F2F2"/>
<path d="M63.5773 70.8514C62.9862 70.213 62.8413 69.2066 63.1113 68.02C63.3843 66.8294 63.9944 65.6719 64.7635 64.6655C65.4624 65.1599 65.8856 66.085 65.6957 67.3476C65.5093 68.605 64.7074 69.9198 63.5773 70.8514Z" fill="#F2F2F2"/>
<path d="M64.4268 71.8715C65.5724 70.8519 66.8381 69.97 68.0999 69.4801C69.3572 68.9937 70.3918 69.0193 71.0408 69.5968C70.0579 70.9923 68.6583 72.0809 67.3024 72.4821C65.9422 72.8876 64.9375 72.5664 64.4268 71.8715Z" fill="#F2F2F2"/>
<path d="M66.4054 64.0672C66.416 62.8713 66.7619 61.6347 67.3004 60.5117C68.0643 60.8396 68.6474 61.637 68.7194 62.8828C68.7936 64.1229 68.3042 65.5446 67.4422 66.6729C66.7508 66.1887 66.397 65.2583 66.4054 64.0672Z" fill="#F2F2F2"/>
<path d="M68.4548 67.4635C69.3115 66.2495 70.3289 65.1442 71.4294 64.4166C72.5264 63.693 73.5195 63.5065 74.2515 63.9235C73.5893 65.4535 72.4857 66.7784 71.2915 67.4433C70.0934 68.1126 69.0843 68.0189 68.4548 67.4635Z" fill="#F2F2F2"/>
<path d="M68.7543 59.5429C68.5316 58.3898 68.6306 57.1263 68.9421 55.9326C69.7421 56.0908 70.4534 56.7384 70.7592 57.9215C71.0658 59.0989 70.8678 60.5669 70.2644 61.8318C69.5041 61.511 68.9783 60.6911 68.7543 59.5429Z" fill="#F2F2F2"/>
<path d="M71.3897 62.3774C71.9702 61.0326 72.738 59.7599 73.6617 58.8343C74.5833 57.9132 75.5093 57.5315 76.2948 57.7815C75.9409 59.3848 75.1316 60.8829 74.1124 61.7682C73.091 62.6588 72.1049 62.7795 71.3897 62.3774Z" fill="#F2F2F2"/>
<path d="M70.1058 54.7701C69.6738 53.6882 69.5395 52.4326 69.6278 51.2018C70.4442 51.1925 71.2633 51.6807 71.7806 52.775C72.2984 53.8635 72.3731 55.3391 72.0148 56.6994C71.2076 56.5417 70.5383 55.8468 70.1058 54.7701Z" fill="#F2F2F2"/>
<path d="M73.2241 57.0039C73.5449 55.5703 74.0666 54.169 74.8066 53.0747C75.5452 51.9857 76.3868 51.4228 77.2059 51.5067C77.1511 53.1467 76.629 54.7769 75.7896 55.8508C74.9488 56.9306 74.0025 57.2509 73.2241 57.0039Z" fill="#F2F2F2"/>
<path d="M72.8027 51.3009C71.9863 51.3124 71.2061 50.7756 70.588 49.8188C69.9695 48.857 69.6095 47.6651 69.4681 46.4519C70.2629 46.2779 71.1522 46.5862 71.8577 47.5431C72.5624 48.4943 72.9043 49.9098 72.8027 51.3009Z" fill="#F2F2F2"/>
<path d="M74.0347 51.3482C74.086 49.8938 74.3405 48.4297 74.8622 47.2197C75.3835 46.0149 76.1005 45.2992 76.9152 45.2153C77.1639 46.815 76.9509 48.4991 76.328 49.7096C75.7047 50.9258 74.8392 51.4285 74.0347 51.3482Z" fill="#F2F2F2"/>
<path d="M70.1205 44.908C69.3305 44.0928 68.7488 42.9999 68.371 41.841C69.1194 41.5089 70.0573 41.6299 70.9365 42.4225C71.8139 43.2097 72.4182 44.5254 72.5768 45.9068C71.7754 46.0844 70.9086 45.7181 70.1205 44.908Z" fill="#F2F2F2"/>
<path d="M73.7988 45.7026C73.5792 44.2695 73.5523 42.7851 73.8315 41.4946C74.112 40.209 74.6762 39.363 75.4626 39.1147C76.0228 40.63 76.1341 42.3212 75.7488 43.6324C75.3641 44.9494 74.605 45.6179 73.7988 45.7026Z" fill="#F2F2F2"/>
<path d="M68.7721 40.1611C67.8514 39.5373 67.0717 38.6029 66.4659 37.5643C67.1203 37.1004 68.0533 37.0346 69.0615 37.6208C70.0669 38.2022 70.9086 39.3393 71.3283 40.6268C70.5927 40.9567 69.6897 40.7805 68.7721 40.1611Z" fill="#F2F2F2"/>
<path d="M72.4556 40.1893C71.9678 38.8661 71.6484 37.4542 71.6586 36.1676C71.6705 34.8851 72.0416 33.9671 72.7502 33.5762C73.5998 34.9116 74.0416 36.5003 73.9271 37.8265C73.8145 39.1576 73.2132 39.9463 72.4556 40.1893Z" fill="#F2F2F2"/>
<path d="M63.8345 33.7927C64.3554 33.2435 65.2279 33.0173 66.3019 33.3778C67.3728 33.7348 68.3968 34.6316 69.0498 35.7431C68.4291 36.1893 67.5504 36.199 66.5599 35.7935C65.5663 35.3849 64.6337 34.655 63.8345 33.7927Z" fill="#F2F2F2"/>
<path d="M70.0036 35.1319C69.2818 34.0036 68.6929 32.756 68.4366 31.5636C68.183 30.3747 68.342 29.4576 68.9305 28.9668C70.008 30.0452 70.7436 31.4258 70.9036 32.6703C71.0661 33.9188 70.6623 34.7621 70.0036 35.1319Z" fill="#F2F2F2"/>
<path d="M62.7299 29.927C63.8592 30.0781 65.0524 30.7466 65.9214 31.6827C65.4156 32.2195 64.5687 32.3891 63.5168 32.1801C62.4609 31.969 61.3847 31.4371 60.3983 30.7532C60.7861 30.1391 61.5968 29.7733 62.7299 29.927Z" fill="#F2F2F2"/>
<path d="M66.707 30.9343C65.7695 29.9964 64.9239 28.9176 64.4097 27.8303C63.8985 26.7462 63.8482 25.8463 64.3165 25.2764C65.6149 26.11 66.6301 27.286 67.0524 28.436C67.4775 29.5895 67.2645 30.4629 66.707 30.9343Z" fill="#F2F2F2"/>
<path d="M27.1425 47.3967V44.5518H26.6436V47.3967H27.1425ZM29.5729 47.3967V45.9465C29.5729 45.5242 29.3511 45.2854 28.9074 45.2854C28.5833 45.2854 28.3189 45.456 28.1824 45.6181V45.3365H27.7345V47.3967H28.1824V45.9593C28.2848 45.8186 28.4809 45.682 28.7113 45.682C28.9629 45.682 29.125 45.7887 29.125 46.1085V47.3967H29.5729ZM31.1782 47.3967L32.0185 45.3365H31.5365L30.9351 46.8806L30.3337 45.3365H29.856L30.6963 47.3967H31.1782ZM32.1717 46.3645C32.1717 47.0171 32.6324 47.4479 33.2508 47.4479C33.5793 47.4479 33.8821 47.3455 34.0868 47.1493L33.8821 46.855C33.737 47 33.4982 47.081 33.2977 47.081C32.9096 47.081 32.6751 46.8251 32.6409 46.5138H34.2318V46.4071C34.2318 45.7588 33.8352 45.2854 33.2167 45.2854C32.6068 45.2854 32.1717 45.7673 32.1717 46.3645ZM33.2167 45.6522C33.6219 45.6522 33.7883 45.955 33.7968 46.1982H32.6367C32.658 45.9465 32.8328 45.6522 33.2167 45.6522ZM34.4948 47.1279C34.708 47.3369 35.0279 47.4479 35.3776 47.4479C35.9321 47.4479 36.2349 47.1706 36.2349 46.8081C36.2349 46.3218 35.7956 46.2195 35.4374 46.1427C35.1943 46.0872 34.9895 46.0318 34.9895 45.874C34.9895 45.729 35.1388 45.6437 35.3734 45.6437C35.6293 45.6437 35.8597 45.7503 35.9833 45.891L36.171 45.5754C35.9833 45.4091 35.7189 45.2854 35.3691 45.2854C34.8488 45.2854 34.5587 45.5754 34.5587 45.9124C34.5587 46.373 34.981 46.4669 35.335 46.5436C35.5866 46.5991 35.8042 46.663 35.8042 46.8422C35.8042 46.9957 35.6677 47.0939 35.399 47.0939C35.1302 47.0939 34.8445 46.9531 34.6995 46.8038L34.4948 47.1279ZM37.3042 47.4479C37.5132 47.4479 37.6454 47.3924 37.7264 47.3157L37.6198 46.9787C37.5857 47.0171 37.5047 47.0512 37.4193 47.0512C37.2914 47.0512 37.2231 46.9488 37.2231 46.8081V45.729H37.6411V45.3365H37.2231V44.7735H36.7753V45.3365H36.4341V45.729H36.7753V46.9189C36.7753 47.2602 36.9587 47.4479 37.3042 47.4479ZM41.0207 47.3967V45.9081C41.0207 45.4901 40.8074 45.2854 40.4278 45.2854C40.1206 45.2854 39.8477 45.4773 39.7283 45.665C39.6601 45.4389 39.4723 45.2854 39.1653 45.2854C38.8539 45.2854 38.5809 45.4901 38.4956 45.6181V45.3365H38.0478V47.3967H38.4956V45.9593C38.5895 45.8228 38.7729 45.682 38.969 45.682C39.2122 45.682 39.3102 45.8313 39.3102 46.0531V47.3967H39.7581V45.955C39.8477 45.8228 40.0353 45.682 40.2358 45.682C40.4747 45.682 40.5728 45.8313 40.5728 46.0531V47.3967H41.0207ZM41.4728 46.3645C41.4728 47.0171 41.9334 47.4479 42.5519 47.4479C42.8803 47.4479 43.1832 47.3455 43.3879 47.1493L43.1832 46.855C43.0381 47 42.7993 47.081 42.5988 47.081C42.2107 47.081 41.9761 46.8251 41.942 46.5138H43.5329V46.4071C43.5329 45.7588 43.1363 45.2854 42.5178 45.2854C41.9079 45.2854 41.4728 45.7673 41.4728 46.3645ZM42.5178 45.6522C42.923 45.6522 43.0894 45.955 43.0979 46.1982H41.9377C41.959 45.9465 42.1339 45.6522 42.5178 45.6522ZM45.8133 47.3967V45.9465C45.8133 45.5242 45.5915 45.2854 45.1479 45.2854C44.8238 45.2854 44.5593 45.456 44.4228 45.6181V45.3365H43.975V47.3967H44.4228V45.9593C44.5252 45.8186 44.7214 45.682 44.9517 45.682C45.2033 45.682 45.3654 45.7887 45.3654 46.1085V47.3967H45.8133ZM47.0134 47.4479C47.2224 47.4479 47.3547 47.3924 47.4357 47.3157L47.329 46.9787C47.295 47.0171 47.2139 47.0512 47.1286 47.0512C47.0007 47.0512 46.9324 46.9488 46.9324 46.8081V45.729H47.3504V45.3365H46.9324V44.7735H46.4846V45.3365H46.1434V45.729H46.4846V46.9189C46.4846 47.2602 46.668 47.4479 47.0134 47.4479ZM51.4244 47.3967L50.3069 44.5518H49.6842L48.5667 47.3967H49.1127L49.3217 46.8507H50.6695L50.8785 47.3967H51.4244ZM50.5287 46.4114H49.4624L49.9956 44.974L50.5287 46.4114ZM51.5433 47.1279C51.7565 47.3369 52.0764 47.4479 52.4261 47.4479C52.9806 47.4479 53.2834 47.1706 53.2834 46.8081C53.2834 46.3218 52.8441 46.2195 52.4859 46.1427C52.2427 46.0872 52.038 46.0318 52.038 45.874C52.038 45.729 52.1873 45.6437 52.4219 45.6437C52.6778 45.6437 52.9081 45.7503 53.0318 45.891L53.2195 45.5754C53.0318 45.4091 52.7673 45.2854 52.4176 45.2854C51.8972 45.2854 51.6072 45.5754 51.6072 45.9124C51.6072 46.373 52.0295 46.4669 52.3835 46.5436C52.6351 46.5991 52.8526 46.663 52.8526 46.8422C52.8526 46.9957 52.7162 47.0939 52.4475 47.0939C52.1788 47.0939 51.893 46.9531 51.7479 46.8038L51.5433 47.1279ZM53.5551 47.1279C53.7683 47.3369 54.0882 47.4479 54.4379 47.4479C54.9924 47.4479 55.2952 47.1706 55.2952 46.8081C55.2952 46.3218 54.8559 46.2195 54.4977 46.1427C54.2546 46.0872 54.0498 46.0318 54.0498 45.874C54.0498 45.729 54.1991 45.6437 54.4337 45.6437C54.6896 45.6437 54.92 45.7503 55.0437 45.891L55.2313 45.5754C55.0437 45.4091 54.7792 45.2854 54.4294 45.2854C53.9091 45.2854 53.619 45.5754 53.619 45.9124C53.619 46.373 54.0413 46.4669 54.3953 46.5436C54.6469 46.5991 54.8645 46.663 54.8645 46.8422C54.8645 46.9957 54.728 47.0939 54.4593 47.0939C54.1906 47.0939 53.9048 46.9531 53.7598 46.8038L53.5551 47.1279ZM57.5844 47.3967V45.3365H57.1365V46.7825C57.0299 46.9233 56.8336 47.0512 56.6076 47.0512C56.3559 47.0512 56.1939 46.9531 56.1939 46.6332V45.3365H55.746V46.7953C55.746 47.2175 55.9636 47.4479 56.4071 47.4479C56.7313 47.4479 56.9872 47.29 57.1365 47.1237V47.3967H57.5844ZM58.6139 47.3967V45.9934C58.7035 45.8484 58.9551 45.7204 59.1428 45.7204C59.1983 45.7204 59.2452 45.7247 59.2836 45.7333V45.2896C59.0149 45.2896 58.7675 45.4432 58.6139 45.6394V45.3365H58.1661V47.3967H58.6139ZM61.3508 47.3967V46.0318C61.3508 45.4773 60.9499 45.2854 60.4935 45.2854C60.1651 45.2854 59.8665 45.392 59.6277 45.6181L59.8111 45.9294C59.9902 45.7545 60.1907 45.6692 60.421 45.6692C60.7068 45.6692 60.903 45.8143 60.903 46.0531V46.3602C60.7537 46.1853 60.5149 46.0958 60.2376 46.0958C59.9006 46.0958 59.521 46.292 59.521 46.7654C59.521 47.2218 59.9006 47.4479 60.2376 47.4479C60.5105 47.4479 60.7494 47.3498 60.903 47.1748V47.3967H61.3508ZM60.903 46.9275C60.8006 47.0683 60.6087 47.1408 60.4125 47.1408C60.1608 47.1408 59.9732 46.9957 59.9732 46.7739C59.9732 46.5479 60.1608 46.4028 60.4125 46.4028C60.6087 46.4028 60.8006 46.4754 60.903 46.6161V46.9275ZM63.7698 47.3967V45.9465C63.7698 45.5242 63.548 45.2854 63.1044 45.2854C62.7802 45.2854 62.5158 45.456 62.3793 45.6181V45.3365H61.9315V47.3967H62.3793V45.9593C62.4817 45.8186 62.6779 45.682 62.9082 45.682C63.1599 45.682 63.322 45.7887 63.322 46.1085V47.3967H63.7698ZM64.2235 46.3645C64.2235 46.9915 64.6628 47.4479 65.2898 47.4479C65.6908 47.4479 65.9339 47.2773 66.0789 47.081L65.7846 46.8081C65.6695 46.9659 65.5116 47.0512 65.3112 47.0512C64.9359 47.0512 64.6885 46.7654 64.6885 46.3645C64.6885 45.9635 64.9359 45.682 65.3112 45.682C65.5116 45.682 65.6695 45.7631 65.7846 45.9252L66.0789 45.6522C65.9339 45.456 65.6908 45.2854 65.2898 45.2854C64.6628 45.2854 64.2235 45.7418 64.2235 46.3645ZM66.3437 46.3645C66.3437 47.0171 66.8043 47.4479 67.4227 47.4479C67.7512 47.4479 68.054 47.3455 68.2588 47.1493L68.054 46.855C67.909 47 67.6701 47.081 67.4697 47.081C67.0815 47.081 66.847 46.8251 66.8128 46.5138H68.4037V46.4071C68.4037 45.7588 68.0071 45.2854 67.3887 45.2854C66.7787 45.2854 66.3437 45.7673 66.3437 46.3645ZM67.3887 45.6522C67.7938 45.6522 67.9602 45.955 67.9687 46.1982H66.8086C66.8299 45.9465 67.0048 45.6522 67.3887 45.6522Z" fill="#F2F2F2"/>
<path d="M38.6559 56.6754C40.2349 56.6754 40.9971 55.7964 40.9971 54.5053V51.3942H39.8692V54.4742C39.8692 55.1975 39.457 55.6953 38.6559 55.6953C37.8548 55.6953 37.4348 55.1975 37.4348 54.4742V51.3942H36.3148V54.5131C36.3148 55.7887 37.077 56.6754 38.6559 56.6754ZM43.1235 56.582V54.7386H44.4458C45.5657 54.7386 46.188 53.9687 46.188 53.0664C46.188 52.1564 45.5735 51.3942 44.4458 51.3942H42.019V56.582H43.1235ZM44.298 53.7664H43.1235V52.3664H44.298C44.7335 52.3664 45.0602 52.6309 45.0602 53.0664C45.0602 53.4942 44.7335 53.7664 44.298 53.7664ZM51.1727 56.582V52.3664H52.6816V51.3942H48.5438V52.3664H50.0605V56.582H51.1727ZM55.6575 56.6754C57.2286 56.6754 58.372 55.5553 58.372 53.992C58.372 52.4286 57.2286 51.3086 55.6575 51.3086C54.0942 51.3086 52.9508 52.4286 52.9508 53.992C52.9508 55.5553 54.0942 56.6754 55.6575 56.6754ZM55.6575 55.6953C54.7009 55.6953 54.0864 54.9564 54.0864 53.992C54.0864 53.0198 54.7009 52.2887 55.6575 52.2887C56.6142 52.2887 57.2364 53.0198 57.2364 53.992C57.2364 54.9564 56.6142 55.6953 55.6575 55.6953ZM35.018 67.6719H35.9212V66.8068C37.309 66.6642 37.9935 65.8562 37.9935 64.801C37.9935 63.5081 36.9003 63.1279 35.9212 62.8807V61.5403C36.3489 61.6449 36.7577 61.8446 37.0999 62.1583L37.8509 61.1696C37.3375 60.7038 36.6911 60.4091 35.9212 60.3235V59.4205H35.018V60.3045C33.7347 60.4376 32.9742 61.2551 32.9742 62.2153C32.9742 63.5081 34.0389 63.8694 35.018 64.1166V65.6185C34.3716 65.5044 33.8583 65.1717 33.5065 64.801L32.7745 65.8277C33.2879 66.3505 34.0199 66.7307 35.018 66.8163V67.6719ZM36.6246 64.9531C36.6246 65.2478 36.3869 65.5235 35.9212 65.6185V64.3447C36.3299 64.4778 36.6246 64.6394 36.6246 64.9531ZM34.3526 62.1012C34.3526 61.778 34.5903 61.5403 35.018 61.4833V62.6431C34.6188 62.529 34.3526 62.3769 34.3526 62.1012ZM41.2376 66.8353C42.7681 66.8353 43.7758 65.9893 43.7758 64.6394C43.7758 63.3561 42.8156 62.586 41.7414 62.586C41.1615 62.586 40.6482 62.8142 40.344 63.1184V61.5688H43.3479V60.3806H38.9941V64.0215L39.9352 64.2687C40.3155 63.9074 40.7432 63.7553 41.2661 63.7553C41.9885 63.7553 42.4068 64.1356 42.4068 64.6964C42.4068 65.2098 41.9791 65.6375 41.2281 65.6375C40.5626 65.6375 39.9733 65.3904 39.5455 64.9436L38.7945 65.8847C39.3363 66.4741 40.1349 66.8353 41.2376 66.8353ZM47.0592 66.8353C48.8654 66.8353 49.683 65.1907 49.683 63.5557C49.683 61.9206 48.8654 60.2855 47.0592 60.2855C45.2435 60.2855 44.4355 61.9206 44.4355 63.5557C44.4355 65.1907 45.2435 66.8353 47.0592 66.8353ZM47.0592 65.6375C46.1466 65.6375 45.8043 64.7249 45.8043 63.5557C45.8043 62.3864 46.1466 61.4833 47.0592 61.4833C47.9623 61.4833 48.3046 62.3864 48.3046 63.5557C48.3046 64.7249 47.9623 65.6375 47.0592 65.6375ZM52.9542 66.8353C54.7604 66.8353 55.5779 65.1907 55.5779 63.5557C55.5779 61.9206 54.7604 60.2855 52.9542 60.2855C51.1385 60.2855 50.3304 61.9206 50.3304 63.5557C50.3304 65.1907 51.1385 66.8353 52.9542 66.8353ZM52.9542 65.6375C52.0416 65.6375 51.6994 64.7249 51.6994 63.5557C51.6994 62.3864 52.0416 61.4833 52.9542 61.4833C53.8573 61.4833 54.1995 62.3864 54.1995 63.5557C54.1995 64.7249 53.8573 65.6375 52.9542 65.6375ZM61.9577 66.7213L59.2675 63.356L61.7866 60.3806H60.1231L57.8796 63.2134V60.3806H56.5296V66.7213H57.8796V64.7725L58.3739 64.1831L60.2941 66.7213H61.9577Z" fill="#F2F2F2"/>
<mask id="mask1_255_294" style="mask-type:luminance" maskUnits="userSpaceOnUse" x="39" y="27" width="16" height="15">
<path d="M54.5841 27.1094H39.8926V41.8009H54.5841V27.1094Z" fill="white"/>
</mask>
<g mask="url(#mask1_255_294)">
<mask id="mask2_255_294" style="mask-type:luminance" maskUnits="userSpaceOnUse" x="39" y="26" width="16" height="16">
<path d="M54.005 26.9736H39.9283V41.0504H54.005V26.9736Z" fill="white"/>
</mask>
<g mask="url(#mask2_255_294)">
<path d="M45.0115 34.498L46.4778 35.9643L48.9217 32.5428M46.9666 27.9575C45.491 29.3588 43.5258 30.1274 41.491 30.099C41.2322 30.8875 41.1006 31.7123 41.1013 32.5422C41.1013 36.1866 43.5934 39.2482 46.9666 40.1169C50.3398 39.2489 52.8319 36.1872 52.8319 32.5428C52.8319 31.6891 52.6951 30.8674 52.4422 30.0983H52.3431C50.2603 30.0983 48.3678 29.285 46.9666 27.9575Z" stroke="white" stroke-width="0.586529" stroke-linecap="round" stroke-linejoin="round"/>
</g>
</g>
</g>
</g>
<path d="M168.989 33.5652L171.156 35.7317L174.767 30.6764M171.878 23.9014C169.698 25.9719 166.794 27.1075 163.787 27.0655C163.405 28.2306 163.211 29.4492 163.212 30.6755C163.212 36.0601 166.894 40.5838 171.878 41.8674C176.862 40.5848 180.544 36.061 180.544 30.6764C180.544 29.415 180.342 28.2008 179.968 27.0645H179.822C176.744 27.0645 173.948 25.8628 171.878 23.9014Z" stroke="white" stroke-width="0.866622" stroke-linecap="round" stroke-linejoin="round"/>
<path d="M151.549 59.6904L149.71 56.8244H148.272V59.6904H147.374V52.4767H150.273C151.592 52.4767 152.533 53.3203 152.533 54.6505C152.533 55.9484 151.646 56.6622 150.662 56.7487L152.609 59.6904H151.549ZM151.603 54.6505C151.603 53.8394 151.019 53.277 150.165 53.277H148.272V56.0349H150.165C151.019 56.0349 151.603 55.4617 151.603 54.6505ZM153.292 57.0732C153.292 55.559 154.373 54.3369 155.866 54.3369C157.445 54.3369 158.375 55.5698 158.375 57.138V57.3435H154.146C154.211 58.3277 154.903 59.1497 156.028 59.1497C156.623 59.1497 157.228 58.9117 157.639 58.4899L158.029 59.0199C157.51 59.539 156.807 59.8202 155.952 59.8202C154.406 59.8202 153.292 58.7062 153.292 57.0732ZM155.855 55.0074C154.741 55.0074 154.189 55.9484 154.146 56.7487H157.574C157.564 55.97 157.044 55.0074 155.855 55.0074ZM159.678 61.0315L160.089 60.4259C160.521 60.945 161.04 61.1397 161.787 61.1397C162.652 61.1397 163.463 60.7179 163.463 59.5715V58.8252C163.085 59.3552 162.446 59.7553 161.711 59.7553C160.348 59.7553 159.386 58.7387 159.386 57.0515C159.386 55.3752 160.337 54.3369 161.711 54.3369C162.414 54.3369 163.041 54.683 163.463 55.2562V54.4667H164.274V59.539C164.274 61.2694 163.063 61.8102 161.787 61.8102C160.9 61.8102 160.294 61.6372 159.678 61.0315ZM163.463 58.1871V55.9051C163.182 55.4509 162.555 55.0615 161.906 55.0615C160.857 55.0615 160.229 55.8943 160.229 57.0515C160.229 58.1979 160.857 59.0415 161.906 59.0415C162.555 59.0415 163.182 58.6414 163.463 58.1871ZM169.425 59.6904V58.955C169.024 59.4092 168.343 59.8202 167.564 59.8202C166.472 59.8202 165.899 59.2903 165.899 58.1547V54.4667H166.71V57.9059C166.71 58.8252 167.175 59.0956 167.878 59.0956C168.516 59.0956 169.122 58.7279 169.425 58.3061V54.4667H170.236V59.6904H169.425ZM171.856 59.6904V52.4767H172.667V59.6904H171.856ZM177.551 59.6904V59.0956C177.118 59.5715 176.524 59.8202 175.821 59.8202C174.934 59.8202 173.993 59.2254 173.993 58.0898C173.993 56.9217 174.934 56.3702 175.821 56.3702C176.534 56.3702 177.129 56.5973 177.551 57.084V56.143C177.551 55.4401 176.989 55.0399 176.232 55.0399C175.604 55.0399 175.096 55.267 174.631 55.7645L174.252 55.2021C174.815 54.6181 175.485 54.3369 176.34 54.3369C177.443 54.3369 178.362 54.8344 178.362 56.0998V59.6904H177.551ZM177.551 58.5873V57.6031C177.237 57.1705 176.686 56.9542 176.113 56.9542C175.356 56.9542 174.826 57.4301 174.826 58.1006C174.826 58.7603 175.356 59.2362 176.113 59.2362C176.686 59.2362 177.237 59.0199 177.551 58.5873ZM181.308 59.8202C180.54 59.8202 180.15 59.3768 180.15 58.5981V55.1805H179.285V54.4667H180.15V53.0391H180.962V54.4667H182.021V55.1805H180.962V58.4251C180.962 58.8144 181.135 59.0956 181.491 59.0956C181.719 59.0956 181.935 58.9983 182.043 58.8793L182.281 59.4849C182.076 59.6796 181.783 59.8202 181.308 59.8202ZM182.864 57.0732C182.864 55.559 183.946 54.3369 185.438 54.3369C187.017 54.3369 187.948 55.5698 187.948 57.138V57.3435H183.719C183.784 58.3277 184.476 59.1497 185.601 59.1497C186.196 59.1497 186.801 58.9117 187.212 58.4899L187.601 59.0199C187.082 59.539 186.379 59.8202 185.525 59.8202C183.978 59.8202 182.864 58.7062 182.864 57.0732ZM185.428 55.0074C184.314 55.0074 183.762 55.9484 183.719 56.7487H187.147C187.136 55.97 186.617 55.0074 185.428 55.0074ZM193.047 59.6904V58.9117C192.657 59.4417 192.019 59.8202 191.284 59.8202C189.921 59.8202 188.959 58.782 188.959 57.084C188.959 55.4184 189.91 54.3369 191.284 54.3369C191.987 54.3369 192.625 54.683 193.047 55.2562V52.4767H193.858V59.6904H193.047ZM193.047 58.2736V55.9051C192.755 55.4509 192.127 55.0615 191.478 55.0615C190.429 55.0615 189.802 55.9267 189.802 57.084C189.802 58.2412 190.429 59.0956 191.478 59.0956C192.127 59.0956 192.755 58.7279 193.047 58.2736ZM143.202 72.6904V65.4767H144.013V68.2562C144.435 67.683 145.062 67.3369 145.776 67.3369C147.138 67.3369 148.101 68.4184 148.101 70.084C148.101 71.782 147.138 72.8202 145.776 72.8202C145.04 72.8202 144.402 72.4417 144.013 71.9117V72.6904H143.202ZM144.013 71.2736C144.294 71.7279 144.932 72.0956 145.57 72.0956C146.63 72.0956 147.257 71.2412 147.257 70.084C147.257 68.9267 146.63 68.0615 145.57 68.0615C144.932 68.0615 144.294 68.4509 144.013 68.9051V71.2736ZM149.26 73.9991C149.379 74.0531 149.574 74.0856 149.704 74.0856C150.061 74.0856 150.299 73.9666 150.482 73.534L150.829 72.7445L148.644 67.4667H149.52L151.261 71.7495L152.992 67.4667H153.878L151.261 73.7503C150.948 74.5074 150.418 74.7994 149.725 74.8102C149.552 74.8102 149.282 74.7778 149.131 74.7345L149.26 73.9991ZM158.832 72.8202C158.064 72.8202 157.675 72.3768 157.675 71.5981V68.1805H156.81V67.4667H157.675V66.0391H158.486V67.4667H159.546V68.1805H158.486V71.4251C158.486 71.8144 158.659 72.0956 159.016 72.0956C159.243 72.0956 159.46 71.9983 159.568 71.8793L159.806 72.4849C159.6 72.6796 159.308 72.8202 158.832 72.8202ZM164.228 72.6904V69.2512C164.228 68.3319 163.753 68.0615 163.05 68.0615C162.422 68.0615 161.817 68.4509 161.503 68.8727V72.6904H160.692V65.4767H161.503V68.2238C161.871 67.7911 162.585 67.3369 163.374 67.3369C164.466 67.3369 165.04 67.8669 165.04 69.0024V72.6904H164.228ZM166.356 70.0732C166.356 68.559 167.438 67.3369 168.93 67.3369C170.509 67.3369 171.44 68.5698 171.44 70.138V70.3435H167.211C167.276 71.3277 167.968 72.1497 169.093 72.1497C169.688 72.1497 170.293 71.9117 170.704 71.4899L171.094 72.0199C170.574 72.539 169.871 72.8202 169.017 72.8202C167.47 72.8202 166.356 71.7062 166.356 70.0732ZM168.92 68.0074C167.806 68.0074 167.254 68.9484 167.211 69.7487H170.639C170.628 68.97 170.109 68.0074 168.92 68.0074ZM175.574 72.6904V65.4767H178.04C180.279 65.4767 181.739 67.0449 181.739 69.089C181.739 71.1439 180.279 72.6904 178.04 72.6904H175.574ZM176.472 71.8901H178.04C179.792 71.8901 180.809 70.6355 180.809 69.089C180.809 67.5316 179.825 66.277 178.04 66.277H176.472V71.8901ZM183.147 72.6904V65.4767H187.873V66.277H184.045V68.6023H187.797V69.4026H184.045V72.6904H183.147ZM188.661 71.6738L189.19 70.9924C189.666 71.5224 190.445 72.0199 191.462 72.0199C192.749 72.0199 193.16 71.3277 193.16 70.7761C193.16 69.9109 192.284 69.673 191.332 69.4134C190.175 69.1106 188.888 68.7861 188.888 67.3694C188.888 66.1797 189.948 65.3685 191.364 65.3685C192.467 65.3685 193.322 65.7363 193.928 66.3744L193.387 67.0341C192.846 66.4392 192.089 66.1689 191.299 66.1689C190.434 66.1689 189.818 66.6339 189.818 67.3153C189.818 68.0399 190.651 68.2562 191.57 68.5049C192.749 68.8186 194.09 69.1863 194.09 70.7004C194.09 71.7495 193.376 72.8202 191.429 72.8202C190.175 72.8202 189.255 72.3443 188.661 71.6738ZM200.505 72.6904L199.867 71.0898H196.211L195.573 72.6904H194.578L197.477 65.4767H198.591L201.5 72.6904H200.505ZM198.039 66.277L196.471 70.2895H199.597L198.039 66.277Z" fill="white"/>
<path fill-rule="evenodd" clip-rule="evenodd" d="M312.056 19.2311C311.661 19.2311 311.27 19.3089 310.905 19.4602C310.54 19.6114 310.209 19.8331 309.929 20.1126C309.65 20.3921 309.428 20.724 309.277 21.0892C309.126 21.4544 309.048 21.8459 309.048 22.2412V25.2476H315.065V22.2412C315.065 21.4428 314.748 20.6771 314.184 20.1126C313.619 19.5482 312.854 19.2311 312.056 19.2311ZM315.924 25.2476V22.2412C315.924 21.215 315.517 20.2308 314.791 19.5051C314.066 18.7793 313.082 18.3716 312.056 18.3716C311.549 18.3716 311.046 18.4717 310.576 18.6662C310.107 18.8607 309.681 19.1457 309.321 19.5051C308.962 19.8644 308.677 20.291 308.483 20.7604C308.289 21.2299 308.189 21.733 308.189 22.2412V25.2476H307.759C306.572 25.2476 305.61 26.2096 305.61 27.3963V32.5533C305.61 33.74 306.572 34.7021 307.759 34.7021H316.354C317.541 34.7021 318.503 33.74 318.503 32.5533V27.3963C318.503 26.2096 317.541 25.2476 316.354 25.2476H315.924ZM311.197 31.6938V28.2558H312.916V31.6938H311.197ZM306.47 27.3963C306.47 26.6843 307.047 26.1071 307.759 26.1071H316.354C317.066 26.1071 317.643 26.6843 317.643 27.3963V32.5533C317.643 33.2653 317.066 33.8426 316.354 33.8426H307.759C307.047 33.8426 306.47 33.2653 306.47 32.5533V27.3963Z" fill="white"/>
<path d="M278.662 53.105L277.072 47.2864L275.482 53.105H274.508L272.454 45.8912H273.449L275.049 51.9045L276.704 45.8912H277.45L279.105 51.9045L280.695 45.8912H281.69L279.635 53.105H278.662ZM281.925 50.4877C281.925 48.9736 283.007 47.7515 284.499 47.7515C286.078 47.7515 287.008 48.9844 287.008 50.5526V50.7581H282.78C282.845 51.7423 283.537 52.5642 284.661 52.5642C285.256 52.5642 285.862 52.3263 286.273 51.9045L286.662 52.4344C286.143 52.9536 285.44 53.2348 284.586 53.2348C283.039 53.2348 281.925 52.1208 281.925 50.4877ZM284.488 48.422C283.374 48.422 282.823 49.3629 282.78 50.1632H286.208C286.197 49.3846 285.678 48.422 284.488 48.422ZM291.143 53.105V45.8912H294.041C295.491 45.8912 296.302 46.8862 296.302 48.0651C296.302 49.244 295.469 50.239 294.041 50.239H292.041V53.105H291.143ZM295.372 48.0651C295.372 47.254 294.788 46.6916 293.933 46.6916H292.041V49.4386H293.933C294.788 49.4386 295.372 48.8762 295.372 48.0651ZM297.458 53.105V47.8812H298.269V48.7248C298.691 48.1732 299.297 47.7731 300.01 47.7731V48.6059C299.913 48.5842 299.816 48.5734 299.686 48.5734C299.188 48.5734 298.507 48.9844 298.269 49.4062V53.105H297.458ZM303.31 53.2348C301.72 53.2348 300.725 52.0018 300.725 50.4877C300.725 48.9736 301.72 47.7515 303.31 47.7515C304.9 47.7515 305.895 48.9736 305.895 50.4877C305.895 52.0018 304.9 53.2348 303.31 53.2348ZM303.31 52.5101C304.424 52.5101 305.04 51.5584 305.04 50.4877C305.04 49.4278 304.424 48.4761 303.31 48.4761C302.196 48.4761 301.569 49.4278 301.569 50.4877C301.569 51.5584 302.196 52.5101 303.31 52.5101ZM306.914 50.4877C306.914 48.9411 307.963 47.7515 309.521 47.7515C310.472 47.7515 311.035 48.1408 311.435 48.6599L310.894 49.1574C310.548 48.6816 310.105 48.4761 309.564 48.4761C308.45 48.4761 307.758 49.3305 307.758 50.4877C307.758 51.6449 308.45 52.5101 309.564 52.5101C310.105 52.5101 310.548 52.2938 310.894 51.8288L311.435 52.3263C311.035 52.8454 310.472 53.2348 309.521 53.2348C307.963 53.2348 306.914 52.0451 306.914 50.4877ZM312.269 50.4877C312.269 48.9736 313.351 47.7515 314.843 47.7515C316.422 47.7515 317.352 48.9844 317.352 50.5526V50.7581H313.123C313.188 51.7423 313.881 52.5642 315.005 52.5642C315.6 52.5642 316.206 52.3263 316.617 51.9045L317.006 52.4344C316.487 52.9536 315.784 53.2348 314.93 53.2348C313.383 53.2348 312.269 52.1208 312.269 50.4877ZM314.832 48.422C313.718 48.422 313.167 49.3629 313.123 50.1632H316.552C316.541 49.3846 316.022 48.422 314.832 48.422ZM318.212 52.4128L318.634 51.8288C318.98 52.2289 319.639 52.575 320.353 52.575C321.153 52.575 321.586 52.2181 321.586 51.7098C321.586 51.1366 320.948 50.9528 320.245 50.7797C319.358 50.5742 318.352 50.3363 318.352 49.2548C318.352 48.4436 319.055 47.7515 320.299 47.7515C321.186 47.7515 321.813 48.0867 322.235 48.5085L321.856 49.0709C321.543 48.6924 320.97 48.4112 320.299 48.4112C319.585 48.4112 319.142 48.7356 319.142 49.2007C319.142 49.709 319.737 49.8712 320.418 50.0335C321.327 50.239 322.376 50.4985 322.376 51.6557C322.376 52.5318 321.673 53.2348 320.321 53.2348C319.466 53.2348 318.742 52.9752 318.212 52.4128ZM323.239 52.4128L323.661 51.8288C324.007 52.2289 324.667 52.575 325.381 52.575C326.181 52.575 326.613 52.2181 326.613 51.7098C326.613 51.1366 325.975 50.9528 325.272 50.7797C324.386 50.5742 323.38 50.3363 323.38 49.2548C323.38 48.4436 324.083 47.7515 325.326 47.7515C326.213 47.7515 326.841 48.0867 327.262 48.5085L326.884 49.0709C326.57 48.6924 325.997 48.4112 325.326 48.4112C324.613 48.4112 324.169 48.7356 324.169 49.2007C324.169 49.709 324.764 49.8712 325.445 50.0335C326.354 50.239 327.403 50.4985 327.403 51.6557C327.403 52.5318 326.7 53.2348 325.348 53.2348C324.494 53.2348 323.769 52.9752 323.239 52.4128ZM333.64 53.105V50.0551L330.795 45.8912H331.844L334.083 49.244L336.322 45.8912H337.371L334.537 50.0551V53.105H333.64ZM339.188 53.2348C337.598 53.2348 336.603 52.0018 336.603 50.4877C336.603 48.9736 337.598 47.7515 339.188 47.7515C340.778 47.7515 341.773 48.9736 341.773 50.4877C341.773 52.0018 340.778 53.2348 339.188 53.2348ZM339.188 52.5101C340.302 52.5101 340.919 51.5584 340.919 50.4877C340.919 49.4278 340.302 48.4761 339.188 48.4761C338.074 48.4761 337.447 49.4278 337.447 50.4877C337.447 51.5584 338.074 52.5101 339.188 52.5101ZM346.621 53.105V52.3695C346.221 52.8238 345.539 53.2348 344.761 53.2348C343.668 53.2348 343.095 52.7048 343.095 51.5692V47.8812H343.906V51.3205C343.906 52.2398 344.371 52.5101 345.074 52.5101C345.713 52.5101 346.318 52.1424 346.621 51.7206V47.8812H347.432V53.105H346.621ZM349.052 53.105V47.8812H349.863V48.7248C350.285 48.1732 350.891 47.7731 351.604 47.7731V48.6059C351.507 48.5842 351.41 48.5734 351.28 48.5734C350.782 48.5734 350.101 48.9844 349.863 49.4062V53.105H349.052ZM267.902 66.105V58.8912H270.368C272.606 58.8912 274.067 60.4594 274.067 62.5035C274.067 64.5584 272.606 66.105 270.368 66.105H267.902ZM268.8 65.3047H270.368C272.12 65.3047 273.136 64.0501 273.136 62.5035C273.136 60.9461 272.152 59.6916 270.368 59.6916H268.8V65.3047ZM278.708 66.105V65.5101C278.276 65.986 277.681 66.2348 276.978 66.2348C276.091 66.2348 275.15 65.6399 275.15 64.5043C275.15 63.3363 276.091 62.7847 276.978 62.7847C277.692 62.7847 278.287 63.0118 278.708 63.4985V62.5576C278.708 61.8546 278.146 61.4544 277.389 61.4544C276.762 61.4544 276.253 61.6816 275.788 62.1791L275.41 61.6167C275.972 61.0327 276.643 60.7515 277.497 60.7515C278.6 60.7515 279.519 61.249 279.519 62.5143V66.105H278.708ZM278.708 65.0018V64.0176C278.395 63.585 277.843 63.3687 277.27 63.3687C276.513 63.3687 275.983 63.8446 275.983 64.5151C275.983 65.1749 276.513 65.6507 277.27 65.6507C277.843 65.6507 278.395 65.4344 278.708 65.0018ZM282.465 66.2348C281.697 66.2348 281.308 65.7913 281.308 65.0126V61.595H280.443V60.8812H281.308V59.4536H282.119V60.8812H283.179V61.595H282.119V64.8396C282.119 65.2289 282.292 65.5101 282.649 65.5101C282.876 65.5101 283.092 65.4128 283.2 65.2938L283.438 65.8995C283.233 66.0942 282.941 66.2348 282.465 66.2348ZM287.591 66.105V65.5101C287.158 65.986 286.563 66.2348 285.86 66.2348C284.973 66.2348 284.033 65.6399 284.033 64.5043C284.033 63.3363 284.973 62.7847 285.86 62.7847C286.574 62.7847 287.169 63.0118 287.591 63.4985V62.5576C287.591 61.8546 287.028 61.4544 286.271 61.4544C285.644 61.4544 285.136 61.6816 284.671 62.1791L284.292 61.6167C284.855 61.0327 285.525 60.7515 286.379 60.7515C287.483 60.7515 288.402 61.249 288.402 62.5143V66.105H287.591ZM287.591 65.0018V64.0176C287.277 63.585 286.726 63.3687 286.152 63.3687C285.395 63.3687 284.865 63.8446 284.865 64.5151C284.865 65.1749 285.395 65.6507 286.152 65.6507C286.726 65.6507 287.277 65.4344 287.591 65.0018ZM292.416 65.0884L292.946 64.407C293.422 64.9369 294.201 65.4344 295.217 65.4344C296.504 65.4344 296.915 64.7423 296.915 64.1907C296.915 63.3255 296.039 63.0875 295.087 62.828C293.93 62.5251 292.643 62.2007 292.643 60.7839C292.643 59.5942 293.703 58.7831 295.12 58.7831C296.223 58.7831 297.077 59.1508 297.683 59.7889L297.142 60.4486C296.602 59.8538 295.844 59.5834 295.055 59.5834C294.19 59.5834 293.573 60.0485 293.573 60.7298C293.573 61.4544 294.406 61.6707 295.325 61.9195C296.504 62.2331 297.845 62.6009 297.845 64.115C297.845 65.1641 297.131 66.2348 295.185 66.2348C293.93 66.2348 293.011 65.7589 292.416 65.0884ZM298.85 63.4877C298.85 61.9736 299.932 60.7515 301.424 60.7515C303.003 60.7515 303.934 61.9844 303.934 63.5526V63.7581H299.705C299.77 64.7423 300.462 65.5642 301.587 65.5642C302.181 65.5642 302.787 65.3263 303.198 64.9045L303.587 65.4344C303.068 65.9536 302.365 66.2348 301.511 66.2348C299.964 66.2348 298.85 65.1208 298.85 63.4877ZM301.414 61.422C300.3 61.422 299.748 62.3629 299.705 63.1632H303.133C303.122 62.3846 302.603 61.422 301.414 61.422ZM304.945 63.4877C304.945 61.9411 305.994 60.7515 307.551 60.7515C308.503 60.7515 309.065 61.1408 309.465 61.6599L308.924 62.1574C308.578 61.6816 308.135 61.4761 307.594 61.4761C306.48 61.4761 305.788 62.3305 305.788 63.4877C305.788 64.6449 306.48 65.5101 307.594 65.5101C308.135 65.5101 308.578 65.2938 308.924 64.8288L309.465 65.3263C309.065 65.8454 308.503 66.2348 307.551 66.2348C305.994 66.2348 304.945 65.0451 304.945 63.4877ZM314.128 66.105V65.3695C313.728 65.8238 313.046 66.2348 312.268 66.2348C311.175 66.2348 310.602 65.7048 310.602 64.5692V60.8812H311.413V64.3205C311.413 65.2398 311.878 65.5101 312.581 65.5101C313.219 65.5101 313.825 65.1424 314.128 64.7206V60.8812H314.939V66.105H314.128ZM316.559 66.105V60.8812H317.37V61.7248C317.792 61.1732 318.398 60.7731 319.111 60.7731V61.6059C319.014 61.5842 318.917 61.5734 318.787 61.5734C318.289 61.5734 317.608 61.9844 317.37 62.4062V66.105H316.559ZM319.826 63.4877C319.826 61.9736 320.907 60.7515 322.4 60.7515C323.979 60.7515 324.909 61.9844 324.909 63.5526V63.7581H320.68C320.745 64.7423 321.437 65.5642 322.562 65.5642C323.157 65.5642 323.763 65.3263 324.174 64.9045L324.563 65.4344C324.044 65.9536 323.341 66.2348 322.487 66.2348C320.94 66.2348 319.826 65.1208 319.826 63.4877ZM322.389 61.422C321.275 61.422 320.724 62.3629 320.68 63.1632H324.109C324.098 62.3846 323.579 61.422 322.389 61.422ZM326.223 66.105V58.8912H327.034V66.105H326.223ZM328.49 67.4136C328.609 67.4677 328.804 67.5001 328.933 67.5001C329.29 67.5001 329.528 67.3812 329.712 66.9486L330.058 66.1591L327.873 60.8812H328.749L330.491 65.1641L332.221 60.8812H333.108L330.491 67.1649C330.177 67.9219 329.647 68.2139 328.955 68.2248C328.782 68.2248 328.512 68.1923 328.36 68.1491L328.49 67.4136ZM342.291 66.105L340.701 60.2864L339.111 66.105H338.138L336.083 58.8912H337.078L338.678 64.9045L340.333 58.8912H341.079L342.734 64.9045L344.324 58.8912H345.319L343.264 66.105H342.291ZM346.69 60.0052C346.398 60.0052 346.15 59.7565 346.15 59.4536C346.15 59.1508 346.398 58.9129 346.69 58.9129C346.993 58.9129 347.242 59.1508 347.242 59.4536C347.242 59.7565 346.993 60.0052 346.69 60.0052ZM346.29 66.105V60.8812H347.101V66.105H346.29ZM350.039 66.2348C349.271 66.2348 348.882 65.7913 348.882 65.0126V61.595H348.016V60.8812H348.882V59.4536H349.693V60.8812H350.753V61.595H349.693V64.8396C349.693 65.2289 349.866 65.5101 350.223 65.5101C350.45 65.5101 350.666 65.4128 350.774 65.2938L351.012 65.8995C350.807 66.0942 350.515 66.2348 350.039 66.2348ZM355.435 66.105V62.6657C355.435 61.7465 354.959 61.4761 354.256 61.4761C353.629 61.4761 353.023 61.8654 352.71 62.2872V66.105H351.898V58.8912H352.71V61.6383C353.077 61.2057 353.791 60.7515 354.581 60.7515C355.673 60.7515 356.246 61.2814 356.246 62.417V66.105H355.435ZM276.685 80.105L274.381 77.0335L272.077 80.105H270.985L273.797 76.4062L271.147 72.8912H272.24L274.381 75.7789L276.512 72.8912H277.604L274.965 76.3954L277.766 80.105H276.685ZM283.74 80.105L281.436 77.0335L279.133 80.105H278.04L280.852 76.4062L278.202 72.8912H279.295L281.436 75.7789L283.567 72.8912H284.659L282.02 76.3954L284.821 80.105H283.74ZM288.598 80.105V72.8912H291.81C293.064 72.8912 293.832 73.6483 293.832 74.7298C293.832 75.6383 293.226 76.244 292.567 76.3846C293.335 76.5035 293.973 77.293 293.973 78.1582C293.973 79.3155 293.205 80.105 291.885 80.105H288.598ZM289.495 76.0168H291.658C292.469 76.0168 292.902 75.5193 292.902 74.8596C292.902 74.2107 292.469 73.6916 291.658 73.6916H289.495V76.0168ZM289.495 79.3047H291.702C292.545 79.3047 293.043 78.8288 293.043 78.0609C293.043 77.4012 292.588 76.8172 291.702 76.8172H289.495V79.3047ZM295.767 74.0052C295.475 74.0052 295.226 73.7565 295.226 73.4536C295.226 73.1508 295.475 72.9129 295.767 72.9129C296.07 72.9129 296.319 73.1508 296.319 73.4536C296.319 73.7565 296.07 74.0052 295.767 74.0052ZM295.367 80.105V74.8812H296.178V80.105H295.367ZM299.115 80.2348C298.348 80.2348 297.958 79.7913 297.958 79.0126V75.595H297.093V74.8812H297.958V73.4536H298.769V74.8812H299.829V75.595H298.769V78.8396C298.769 79.2289 298.942 79.5101 299.299 79.5101C299.526 79.5101 299.743 79.4128 299.851 79.2938L300.089 79.8995C299.883 80.0942 299.591 80.2348 299.115 80.2348ZM303.796 80.105V72.8912H308.522V73.6916H304.694V76.0168H308.446V76.8172H304.694V79.3047H308.522V80.105H303.796ZM313.447 80.105V76.6874C313.447 75.7681 312.982 75.4761 312.279 75.4761C311.641 75.4761 311.035 75.8654 310.732 76.2872V80.105H309.921V74.8812H310.732V75.6383C311.1 75.2057 311.814 74.7515 312.592 74.7515C313.685 74.7515 314.258 75.303 314.258 76.4386V80.105H313.447ZM315.575 77.4877C315.575 75.9411 316.624 74.7515 318.181 74.7515C319.133 74.7515 319.695 75.1408 320.096 75.6599L319.555 76.1574C319.209 75.6816 318.765 75.4761 318.225 75.4761C317.111 75.4761 316.418 76.3305 316.418 77.4877C316.418 78.6449 317.111 79.5101 318.225 79.5101C318.765 79.5101 319.209 79.2938 319.555 78.8288L320.096 79.3263C319.695 79.8454 319.133 80.2348 318.181 80.2348C316.624 80.2348 315.575 79.0451 315.575 77.4877ZM321.232 80.105V74.8812H322.044V75.7248C322.465 75.1732 323.071 74.7731 323.785 74.7731V75.6059C323.688 75.5842 323.59 75.5734 323.46 75.5734C322.963 75.5734 322.282 75.9844 322.044 76.4062V80.105H321.232ZM324.64 81.4136C324.759 81.4677 324.954 81.5001 325.084 81.5001C325.44 81.5001 325.678 81.3812 325.862 80.9486L326.208 80.1591L324.024 74.8812H324.9L326.641 79.1641L328.371 74.8812H329.258L326.641 81.1649C326.327 81.9219 325.797 82.2139 325.105 82.2248C324.932 82.2248 324.662 82.1923 324.51 82.1491L324.64 81.4136ZM330.915 82.095H330.104V74.8812H330.915V75.6599C331.294 75.13 331.943 74.7515 332.678 74.7515C334.052 74.7515 335.004 75.7897 335.004 77.4877C335.004 79.1749 334.052 80.2348 332.678 80.2348C331.965 80.2348 331.337 79.8995 330.915 79.3155V82.095ZM334.149 77.4877C334.149 76.3305 333.522 75.4761 332.473 75.4761C331.835 75.4761 331.197 75.8546 330.915 76.3088V78.6666C331.197 79.1208 331.835 79.5101 332.473 79.5101C333.522 79.5101 334.149 78.6449 334.149 77.4877ZM337.634 80.2348C336.866 80.2348 336.477 79.7913 336.477 79.0126V75.595H335.612V74.8812H336.477V73.4536H337.288V74.8812H338.348V75.595H337.288V78.8396C337.288 79.2289 337.461 79.5101 337.818 79.5101C338.045 79.5101 338.261 79.4128 338.37 79.2938L338.607 79.8995C338.402 80.0942 338.11 80.2348 337.634 80.2348ZM339.894 74.0052C339.602 74.0052 339.353 73.7565 339.353 73.4536C339.353 73.1508 339.602 72.9129 339.894 72.9129C340.197 72.9129 340.445 73.1508 340.445 73.4536C340.445 73.7565 340.197 74.0052 339.894 74.0052ZM339.494 80.105V74.8812H340.305V80.105H339.494ZM344.205 80.2348C342.615 80.2348 341.62 79.0018 341.62 77.4877C341.62 75.9736 342.615 74.7515 344.205 74.7515C345.795 74.7515 346.79 75.9736 346.79 77.4877C346.79 79.0018 345.795 80.2348 344.205 80.2348ZM344.205 79.5101C345.319 79.5101 345.935 78.5584 345.935 77.4877C345.935 76.4278 345.319 75.4761 344.205 75.4761C343.091 75.4761 342.464 76.4278 342.464 77.4877C342.464 78.5584 343.091 79.5101 344.205 79.5101ZM351.638 80.105V76.6874C351.638 75.7681 351.173 75.4761 350.47 75.4761C349.832 75.4761 349.226 75.8654 348.923 76.2872V80.105H348.112V74.8812H348.923V75.6383C349.291 75.2057 350.005 74.7515 350.783 74.7515C351.876 74.7515 352.449 75.303 352.449 76.4386V80.105H351.638Z" fill="white"/>
<path d="M437.85 29.1146L438.616 28.0538C439.158 28.6314 440.007 29.1382 441.103 29.1382C442.235 29.1382 442.683 28.5842 442.683 28.0656C442.683 27.3583 441.846 27.1461 440.891 26.8986C439.606 26.5803 438.097 26.2031 438.097 24.5411C438.097 23.2445 439.241 22.2426 440.962 22.2426C442.188 22.2426 443.178 22.6316 443.909 23.3388L443.119 24.3643C442.506 23.7514 441.669 23.4685 440.844 23.4685C440.03 23.4685 439.512 23.8575 439.512 24.4468C439.512 25.0598 440.313 25.2602 441.245 25.4959C442.541 25.826 444.085 26.2267 444.085 27.9359C444.085 29.2443 443.166 30.3641 441.044 30.3641C439.594 30.3641 438.545 29.8572 437.85 29.1146ZM450.377 28.6785C450.848 29.1736 451.343 29.6804 451.897 30.2227H450.283C450.094 30.0458 449.846 29.7983 449.587 29.539C448.998 30.0341 448.279 30.3641 447.383 30.3641C445.98 30.3641 444.849 29.6215 444.849 28.1245C444.849 26.9104 445.662 26.2974 446.558 25.826C446.228 25.2366 446.004 24.6472 446.004 24.105C446.004 23.0441 446.911 22.2426 448.137 22.2426C449.21 22.2426 450.082 22.8319 450.082 23.8575C450.082 25.048 449.104 25.5548 448.125 26.0381C448.385 26.4035 448.668 26.7454 448.892 27.0047C449.151 27.323 449.41 27.6176 449.67 27.9123C450.047 27.3465 450.306 26.7218 450.448 26.2739L451.461 26.7336C451.19 27.3583 450.837 28.0538 450.377 28.6785ZM447.253 24.1286C447.253 24.4822 447.418 24.8947 447.642 25.3073C448.385 24.9537 448.986 24.5765 448.986 23.9164C448.986 23.4331 448.644 23.162 448.196 23.162C447.666 23.162 447.253 23.5628 447.253 24.1286ZM447.536 29.374C448.043 29.374 448.503 29.15 448.892 28.82C448.503 28.3956 448.137 27.983 447.925 27.7355C447.642 27.3937 447.336 27.0047 447.053 26.6039C446.546 26.9458 446.169 27.3583 446.169 28.0184C446.169 28.8789 446.817 29.374 447.536 29.374ZM452.93 30.2227V22.3605H456.383C458.034 22.3605 458.953 23.492 458.953 24.824C458.953 26.156 458.022 27.2876 456.383 27.2876H454.309V30.2227H452.93ZM457.539 24.824C457.539 24.0696 456.973 23.5746 456.195 23.5746H454.309V26.0735H456.195C456.973 26.0735 457.539 25.5784 457.539 24.824ZM462.952 29.15L463.742 28.207C464.272 28.8082 464.979 29.1382 465.863 29.1382C466.853 29.1382 467.478 28.5253 467.478 27.7591C467.478 26.9104 466.865 26.3564 465.899 26.3564C465.227 26.3564 464.673 26.5686 464.178 27.0401L463.199 26.7572V22.3605H468.35V23.5746H464.579V25.8495C464.956 25.4723 465.604 25.1659 466.358 25.1659C467.679 25.1659 468.869 26.0971 468.869 27.7001C468.869 29.3386 467.631 30.3641 465.875 30.3641C464.52 30.3641 463.588 29.9044 462.952 29.15ZM469.843 26.2974C469.843 24.3172 470.786 22.2426 472.99 22.2426C475.194 22.2426 476.137 24.3172 476.137 26.2974C476.137 28.2777 475.194 30.3641 472.99 30.3641C470.786 30.3641 469.843 28.2777 469.843 26.2974ZM474.735 26.2974C474.735 24.8004 474.275 23.4685 472.99 23.4685C471.705 23.4685 471.246 24.8004 471.246 26.2974C471.246 27.7944 471.705 29.1382 472.99 29.1382C474.275 29.1382 474.735 27.7944 474.735 26.2974ZM477.106 26.2974C477.106 24.3172 478.049 22.2426 480.254 22.2426C482.458 22.2426 483.401 24.3172 483.401 26.2974C483.401 28.2777 482.458 30.3641 480.254 30.3641C478.049 30.3641 477.106 28.2777 477.106 26.2974ZM481.998 26.2974C481.998 24.8004 481.538 23.4685 480.254 23.4685C478.969 23.4685 478.509 24.8004 478.509 26.2974C478.509 27.7944 478.969 29.1382 480.254 29.1382C481.538 29.1382 481.998 27.7944 481.998 26.2974Z" fill="white"/>
<path d="M423.898 53.105V49.7955H419.68V53.105H418.782V45.8912H419.68V48.9952H423.898V45.8912H424.796V53.105H423.898ZM429.716 53.105V52.5101C429.283 52.986 428.688 53.2348 427.985 53.2348C427.098 53.2348 426.158 52.6399 426.158 51.5043C426.158 50.3363 427.098 49.7847 427.985 49.7847C428.699 49.7847 429.294 50.0118 429.716 50.4985V49.5576C429.716 48.8546 429.153 48.4544 428.396 48.4544C427.769 48.4544 427.261 48.6816 426.796 49.1791L426.417 48.6167C426.979 48.0327 427.65 47.7515 428.504 47.7515C429.608 47.7515 430.527 48.249 430.527 49.5143V53.105H429.716ZM429.716 52.0018V51.0176C429.402 50.585 428.85 50.3687 428.277 50.3687C427.52 50.3687 426.99 50.8446 426.99 51.5151C426.99 52.1749 427.52 52.6507 428.277 52.6507C428.85 52.6507 429.402 52.4344 429.716 52.0018ZM431.699 52.4128L432.12 51.8288C432.466 52.2289 433.126 52.575 433.84 52.575C434.64 52.575 435.073 52.2181 435.073 51.7098C435.073 51.1366 434.435 50.9528 433.732 50.7797C432.845 50.5742 431.839 50.3363 431.839 49.2548C431.839 48.4436 432.542 47.7515 433.786 47.7515C434.673 47.7515 435.3 48.0867 435.722 48.5085L435.343 49.0709C435.03 48.6924 434.456 48.4112 433.786 48.4112C433.072 48.4112 432.629 48.7356 432.629 49.2007C432.629 49.709 433.224 49.8712 433.905 50.0335C434.813 50.239 435.862 50.4985 435.862 51.6557C435.862 52.5318 435.159 53.2348 433.808 53.2348C432.953 53.2348 432.229 52.9752 431.699 52.4128ZM444.176 53.105L442.337 50.239H440.899V53.105H440.001V45.8912H442.899C444.219 45.8912 445.16 46.7348 445.16 48.0651C445.16 49.3629 444.273 50.0767 443.289 50.1632L445.236 53.105H444.176ZM444.23 48.0651C444.23 47.254 443.646 46.6916 442.791 46.6916H440.899V49.4494H442.791C443.646 49.4494 444.23 48.8762 444.23 48.0651ZM445.918 50.4877C445.918 48.9736 447 47.7515 448.492 47.7515C450.071 47.7515 451.001 48.9844 451.001 50.5526V50.7581H446.773C446.838 51.7423 447.53 52.5642 448.654 52.5642C449.249 52.5642 449.855 52.3263 450.266 51.9045L450.655 52.4344C450.136 52.9536 449.433 53.2348 448.579 53.2348C447.032 53.2348 445.918 52.1208 445.918 50.4877ZM448.481 48.422C447.367 48.422 446.816 49.3629 446.773 50.1632H450.201C450.19 49.3846 449.671 48.422 448.481 48.422ZM453.635 53.2348C452.867 53.2348 452.477 52.7913 452.477 52.0126V48.595H451.612V47.8812H452.477V46.4536H453.289V47.8812H454.348V48.595H453.289V51.8396C453.289 52.2289 453.462 52.5101 453.818 52.5101C454.046 52.5101 454.262 52.4128 454.37 52.2938L454.608 52.8995C454.403 53.0942 454.11 53.2348 453.635 53.2348ZM459.02 53.105V52.3695C458.62 52.8238 457.938 53.2348 457.16 53.2348C456.067 53.2348 455.494 52.7048 455.494 51.5692V47.8812H456.305V51.3205C456.305 52.2398 456.77 52.5101 457.473 52.5101C458.112 52.5101 458.717 52.1424 459.02 51.7206V47.8812H459.831V53.105H459.02ZM461.451 53.105V47.8812H462.262V48.7248C462.684 48.1732 463.29 47.7731 464.003 47.7731V48.6059C463.906 48.5842 463.809 48.5734 463.679 48.5734C463.181 48.5734 462.5 48.9844 462.262 49.4062V53.105H461.451ZM468.547 53.105V49.6874C468.547 48.7681 468.082 48.4761 467.379 48.4761C466.741 48.4761 466.135 48.8654 465.832 49.2872V53.105H465.021V47.8812H465.832V48.6383C466.2 48.2057 466.914 47.7515 467.692 47.7515C468.785 47.7515 469.358 48.303 469.358 49.4386V53.105H468.547ZM470.675 50.4877C470.675 48.9736 471.756 47.7515 473.249 47.7515C474.828 47.7515 475.758 48.9844 475.758 50.5526V50.7581H471.529C471.594 51.7423 472.286 52.5642 473.411 52.5642C474.006 52.5642 474.612 52.3263 475.023 51.9045L475.412 52.4344C474.893 52.9536 474.19 53.2348 473.335 53.2348C471.789 53.2348 470.675 52.1208 470.675 50.4877ZM473.238 48.422C472.124 48.422 471.573 49.3629 471.529 50.1632H474.958C474.947 49.3846 474.428 48.422 473.238 48.422ZM480.857 53.105V52.3263C480.468 52.8562 479.83 53.2348 479.094 53.2348C477.732 53.2348 476.769 52.1965 476.769 50.4985C476.769 48.833 477.721 47.7515 479.094 47.7515C479.797 47.7515 480.435 48.0975 480.857 48.6707V45.8912H481.668V53.105H480.857ZM480.857 51.6882V49.3197C480.565 48.8654 479.938 48.4761 479.289 48.4761C478.24 48.4761 477.613 49.3413 477.613 50.4985C477.613 51.6557 478.24 52.5101 479.289 52.5101C479.938 52.5101 480.565 52.1424 480.857 51.6882ZM487.195 53.105V47.0809L486.038 48.303L485.497 47.7515L487.303 45.8912H488.093V53.105H487.195ZM489.486 49.5035C489.486 47.7406 490.265 45.7831 492.244 45.7831C494.213 45.7831 495.002 47.7406 495.002 49.5035C495.002 51.2556 494.213 53.2348 492.244 53.2348C490.265 53.2348 489.486 51.2556 489.486 49.5035ZM494.083 49.5035C494.083 48.0651 493.618 46.5834 492.244 46.5834C490.871 46.5834 490.406 48.0651 490.406 49.5035C490.406 50.9419 490.871 52.4344 492.244 52.4344C493.618 52.4344 494.083 50.9419 494.083 49.5035ZM495.892 47.5784C495.892 46.5618 496.595 45.7831 497.623 45.7831C498.661 45.7831 499.375 46.5618 499.375 47.5784C499.375 48.5842 498.661 49.3413 497.623 49.3413C496.595 49.3413 495.892 48.5842 495.892 47.5784ZM496.941 53.105L501.549 45.8912H502.143L497.525 53.105H496.941ZM498.726 47.5784C498.726 46.8646 498.272 46.3347 497.623 46.3347C496.985 46.3347 496.541 46.8646 496.541 47.5784C496.541 48.2598 496.985 48.8005 497.623 48.8005C498.272 48.8005 498.726 48.2598 498.726 47.5784ZM499.656 51.4719C499.656 50.4553 500.359 49.6766 501.386 49.6766C502.414 49.6766 503.128 50.4553 503.128 51.4719C503.128 52.4777 502.414 53.2348 501.386 53.2348C500.359 53.2348 499.656 52.4777 499.656 51.4719ZM502.49 51.4719C502.49 50.7581 502.035 50.2281 501.386 50.2281C500.737 50.2281 500.294 50.7581 500.294 51.4719C500.294 52.1532 500.737 52.694 501.386 52.694C502.035 52.694 502.49 52.1532 502.49 51.4719ZM428.126 66.105V65.5101C427.694 65.986 427.099 66.2348 426.396 66.2348C425.509 66.2348 424.568 65.6399 424.568 64.5043C424.568 63.3363 425.509 62.7847 426.396 62.7847C427.11 62.7847 427.704 63.0118 428.126 63.4985V62.5576C428.126 61.8546 427.564 61.4544 426.807 61.4544C426.179 61.4544 425.671 61.6816 425.206 62.1791L424.828 61.6167C425.39 61.0327 426.06 60.7515 426.915 60.7515C428.018 60.7515 428.937 61.249 428.937 62.5143V66.105H428.126ZM428.126 65.0018V64.0176C427.813 63.585 427.261 63.3687 426.688 63.3687C425.931 63.3687 425.401 63.8446 425.401 64.5151C425.401 65.1749 425.931 65.6507 426.688 65.6507C427.261 65.6507 427.813 65.4344 428.126 65.0018ZM435.482 66.105V63.0551L432.638 58.8912H433.687L435.926 62.244L438.164 58.8912H439.213L436.38 63.0551V66.105H435.482ZM438.446 63.4877C438.446 61.9736 439.527 60.7515 441.02 60.7515C442.599 60.7515 443.529 61.9844 443.529 63.5526V63.7581H439.3C439.365 64.7423 440.057 65.5642 441.182 65.5642C441.777 65.5642 442.383 65.3263 442.794 64.9045L443.183 65.4344C442.664 65.9536 441.961 66.2348 441.106 66.2348C439.56 66.2348 438.446 65.1208 438.446 63.4877ZM441.009 61.422C439.895 61.422 439.343 62.3629 439.3 63.1632H442.729C442.718 62.3846 442.199 61.422 441.009 61.422ZM448.109 66.105V65.5101C447.676 65.986 447.081 66.2348 446.379 66.2348C445.492 66.2348 444.551 65.6399 444.551 64.5043C444.551 63.3363 445.492 62.7847 446.379 62.7847C447.092 62.7847 447.687 63.0118 448.109 63.4985V62.5576C448.109 61.8546 447.547 61.4544 446.789 61.4544C446.162 61.4544 445.654 61.6816 445.189 62.1791L444.81 61.6167C445.373 61.0327 446.043 60.7515 446.898 60.7515C448.001 60.7515 448.92 61.249 448.92 62.5143V66.105H448.109ZM448.109 65.0018V64.0176C447.795 63.585 447.244 63.3687 446.671 63.3687C445.913 63.3687 445.384 63.8446 445.384 64.5151C445.384 65.1749 445.913 65.6507 446.671 65.6507C447.244 65.6507 447.795 65.4344 448.109 65.0018ZM450.546 66.105V60.8812H451.357V61.7248C451.779 61.1732 452.385 60.7731 453.098 60.7731V61.6059C453.001 61.5842 452.904 61.5734 452.774 61.5734C452.277 61.5734 451.595 61.9844 451.357 62.4062V66.105H450.546ZM456.645 62.5035C456.645 60.3729 458.083 58.7723 460.225 58.7723C462.355 58.7723 463.804 60.3729 463.804 62.5035C463.804 64.6341 462.355 66.2348 460.225 66.2348C458.083 66.2348 456.645 64.6341 456.645 62.5035ZM462.874 62.5035C462.874 60.8163 461.836 59.5726 460.225 59.5726C458.602 59.5726 457.575 60.8163 457.575 62.5035C457.575 64.1799 458.602 65.4344 460.225 65.4344C461.836 65.4344 462.874 64.1799 462.874 62.5035ZM466.569 66.105L464.395 60.8812H465.271L467.013 65.1641L468.743 60.8812H469.63L467.456 66.105H466.569ZM470.173 63.4877C470.173 61.9736 471.255 60.7515 472.747 60.7515C474.326 60.7515 475.256 61.9844 475.256 63.5526V63.7581H471.028C471.093 64.7423 471.785 65.5642 472.909 65.5642C473.504 65.5642 474.11 65.3263 474.521 64.9045L474.91 65.4344C474.391 65.9536 473.688 66.2348 472.834 66.2348C471.287 66.2348 470.173 65.1208 470.173 63.4877ZM472.736 61.422C471.622 61.422 471.071 62.3629 471.028 63.1632H474.456C474.445 62.3846 473.926 61.422 472.736 61.422ZM476.57 66.105V60.8812H477.381V61.7248C477.803 61.1732 478.409 60.7731 479.123 60.7731V61.6059C479.025 61.5842 478.928 61.5734 478.798 61.5734C478.301 61.5734 477.619 61.9844 477.381 62.4062V66.105H476.57ZM484.248 66.2348C483.48 66.2348 483.091 65.7913 483.091 65.0126V61.595H482.225V60.8812H483.091V59.4536H483.902V60.8812H484.962V61.595H483.902V64.8396C483.902 65.2289 484.075 65.5101 484.432 65.5101C484.659 65.5101 484.875 65.4128 484.983 65.2938L485.221 65.8995C485.016 66.0942 484.724 66.2348 484.248 66.2348ZM489.644 66.105V62.6657C489.644 61.7465 489.168 61.4761 488.465 61.4761C487.838 61.4761 487.232 61.8654 486.919 62.2872V66.105H486.107V58.8912H486.919V61.6383C487.286 61.2057 488 60.7515 488.79 60.7515C489.882 60.7515 490.455 61.2814 490.455 62.417V66.105H489.644ZM491.772 63.4877C491.772 61.9736 492.853 60.7515 494.346 60.7515C495.925 60.7515 496.855 61.9844 496.855 63.5526V63.7581H492.626C492.691 64.7423 493.383 65.5642 494.508 65.5642C495.103 65.5642 495.709 65.3263 496.12 64.9045L496.509 65.4344C495.99 65.9536 495.287 66.2348 494.432 66.2348C492.886 66.2348 491.772 65.1208 491.772 63.4877ZM494.335 61.422C493.221 61.422 492.67 62.3629 492.626 63.1632H496.055C496.044 62.3846 495.525 61.422 494.335 61.422ZM429.904 80.105V72.8912H430.802V79.3047H434.154V80.105H429.904ZM438.503 80.105V79.5101C438.07 79.986 437.476 80.2348 436.773 80.2348C435.886 80.2348 434.945 79.6399 434.945 78.5043C434.945 77.3363 435.886 76.7847 436.773 76.7847C437.486 76.7847 438.081 77.0118 438.503 77.4985V76.5576C438.503 75.8546 437.941 75.4544 437.184 75.4544C436.556 75.4544 436.048 75.6816 435.583 76.1791L435.204 75.6167C435.767 75.0327 436.437 74.7515 437.292 74.7515C438.395 74.7515 439.314 75.249 439.314 76.5143V80.105H438.503ZM438.503 79.0018V78.0176C438.189 77.585 437.638 77.3687 437.065 77.3687C436.308 77.3687 435.778 77.8446 435.778 78.5151C435.778 79.1749 436.308 79.6507 437.065 79.6507C437.638 79.6507 438.189 79.4344 438.503 79.0018ZM440.486 79.4128L440.908 78.8288C441.254 79.2289 441.914 79.575 442.627 79.575C443.428 79.575 443.86 79.2181 443.86 78.7098C443.86 78.1366 443.222 77.9528 442.519 77.7797C441.632 77.5742 440.627 77.3363 440.627 76.2548C440.627 75.4436 441.33 74.7515 442.573 74.7515C443.46 74.7515 444.087 75.0867 444.509 75.5085L444.131 76.0709C443.817 75.6924 443.244 75.4112 442.573 75.4112C441.859 75.4112 441.416 75.7356 441.416 76.2007C441.416 76.709 442.011 76.8712 442.692 77.0335C443.601 77.239 444.65 77.4985 444.65 78.6557C444.65 79.5318 443.947 80.2348 442.595 80.2348C441.741 80.2348 441.016 79.9752 440.486 79.4128ZM447.287 80.2348C446.519 80.2348 446.13 79.7913 446.13 79.0126V75.595H445.265V74.8812H446.13V73.4536H446.941V74.8812H448.001V75.595H446.941V78.8396C446.941 79.2289 447.114 79.5101 447.471 79.5101C447.698 79.5101 447.914 79.4128 448.022 79.2938L448.26 79.8995C448.055 80.0942 447.763 80.2348 447.287 80.2348ZM451.437 79.0451L451.967 78.4827C452.389 79.0451 453.125 79.4344 453.979 79.4344C455.028 79.4344 455.666 78.9153 455.666 78.0825C455.666 77.1849 454.931 76.8063 453.871 76.8063C453.568 76.8063 453.233 76.8063 453.125 76.8172V75.9952C453.244 76.006 453.579 76.006 453.871 76.006C454.779 76.006 455.547 75.6491 455.547 74.8163C455.547 74.016 454.812 73.5834 453.936 73.5834C453.146 73.5834 452.562 73.8862 452.032 74.4594L451.535 73.8971C452.054 73.2698 452.887 72.7831 454.001 72.7831C455.385 72.7831 456.445 73.4861 456.445 74.7082C456.445 75.7465 455.569 76.2656 454.887 76.3846C455.547 76.4386 456.553 77.001 456.553 78.1582C456.553 79.3587 455.59 80.2348 454.001 80.2348C452.779 80.2348 451.881 79.694 451.437 79.0451ZM457.696 76.5035C457.696 74.7406 458.474 72.7831 460.453 72.7831C462.422 72.7831 463.211 74.7406 463.211 76.5035C463.211 78.2556 462.422 80.2348 460.453 80.2348C458.474 80.2348 457.696 78.2556 457.696 76.5035ZM462.292 76.5035C462.292 75.0651 461.827 73.5834 460.453 73.5834C459.08 73.5834 458.615 75.0651 458.615 76.5035C458.615 77.9419 459.08 79.4344 460.453 79.4344C461.827 79.4344 462.292 77.9419 462.292 76.5035ZM469.496 80.105V77.0551L466.652 72.8912H467.701L469.94 76.244L472.178 72.8912H473.227L470.394 77.0551V80.105H469.496ZM472.46 77.4877C472.46 75.9736 473.541 74.7515 475.034 74.7515C476.613 74.7515 477.543 75.9844 477.543 77.5526V77.7581H473.314C473.379 78.7423 474.071 79.5642 475.196 79.5642C475.791 79.5642 476.397 79.3263 476.808 78.9045L477.197 79.4344C476.678 79.9536 475.975 80.2348 475.12 80.2348C473.574 80.2348 472.46 79.1208 472.46 77.4877ZM475.023 75.422C473.909 75.422 473.357 76.3629 473.314 77.1632H476.743C476.732 76.3846 476.213 75.422 475.023 75.422ZM482.123 80.105V79.5101C481.69 79.986 481.096 80.2348 480.393 80.2348C479.506 80.2348 478.565 79.6399 478.565 78.5043C478.565 77.3363 479.506 76.7847 480.393 76.7847C481.106 76.7847 481.701 77.0118 482.123 77.4985V76.5576C482.123 75.8546 481.561 75.4544 480.804 75.4544C480.176 75.4544 479.668 75.6816 479.203 76.1791L478.824 75.6167C479.387 75.0327 480.057 74.7515 480.912 74.7515C482.015 74.7515 482.934 75.249 482.934 76.5143V80.105H482.123ZM482.123 79.0018V78.0176C481.809 77.585 481.258 77.3687 480.685 77.3687C479.927 77.3687 479.398 77.8446 479.398 78.5151C479.398 79.1749 479.927 79.6507 480.685 79.6507C481.258 79.6507 481.809 79.4344 482.123 79.0018ZM484.56 80.105V74.8812H485.371V75.7248C485.793 75.1732 486.399 74.7731 487.112 74.7731V75.6059C487.015 75.5842 486.918 75.5734 486.788 75.5734C486.291 75.5734 485.609 75.9844 485.371 76.4062V80.105H484.56ZM487.676 79.4128L488.098 78.8288C488.444 79.2289 489.103 79.575 489.817 79.575C490.617 79.575 491.05 79.2181 491.05 78.7098C491.05 78.1366 490.412 77.9528 489.709 77.7797C488.822 77.5742 487.816 77.3363 487.816 76.2548C487.816 75.4436 488.519 74.7515 489.763 74.7515C490.65 74.7515 491.277 75.0867 491.699 75.5085L491.32 76.0709C491.007 75.6924 490.434 75.4112 489.763 75.4112C489.049 75.4112 488.606 75.7356 488.606 76.2007C488.606 76.709 489.201 76.8712 489.882 77.0335C490.79 77.239 491.84 77.4985 491.84 78.6557C491.84 79.5318 491.137 80.2348 489.785 80.2348C488.93 80.2348 488.206 79.9752 487.676 79.4128Z" fill="white"/>
</g>
<defs>
<filter id="filter0_b_255_294" x="-36.3372" y="-36.5013" width="599.003" height="173.331" filterUnits="userSpaceOnUse" color-interpolation-filters="sRGB">
<feFlood flood-opacity="0" result="BackgroundImageFix"/>
<feGaussianBlur in="BackgroundImageFix" stdDeviation="18.2507"/>
<feComposite in2="SourceAlpha" operator="in" result="effect1_backgroundBlur_255_294"/>
<feBlend mode="normal" in="SourceGraphic" in2="effect1_backgroundBlur_255_294" result="shape"/>
</filter>
<clipPath id="clip0_255_294">
<rect width="60.8355" height="54.7519" fill="white" transform="translate(16.3869 22.7881)"/>
</clipPath>
</defs>
</svg>
