<svg width="177" height="60" viewBox="0 0 177 60" fill="none" xmlns="http://www.w3.org/2000/svg">
<rect width="177" height="60" rx="12" fill="#F9F9FA"/>
<rect x="12" y="12" width="36" height="36" rx="18" fill="white"/>
<path fill-rule="evenodd" clip-rule="evenodd" d="M17.8279 26.8465V25.9137H18.9432V26.8465H17.8279ZM17.8279 31.08V27.2569H18.9432V31.0786L17.8279 31.08ZM37.6691 29.472H35.1652C35.2112 29.8781 35.4961 30.1896 36.045 30.1896C36.3806 30.199 36.7045 30.0584 36.9376 29.8021L37.6048 30.5254C37.2624 30.9344 36.7197 31.1834 36.0483 31.1834C34.77 31.1834 34.0181 30.402 34.0181 29.1426C34.0181 27.9795 34.7436 27.1335 35.8927 27.1335C37.0418 27.1335 37.7097 27.8762 37.7097 28.9834C37.7133 29.1473 37.6997 29.3112 37.6691 29.472ZM36.5992 28.7401C36.5742 28.3433 36.3251 28.0606 35.8968 28.0606C35.4684 28.0606 35.22 28.3404 35.1672 28.7401H36.5992ZM39.5674 31.1798C39.0165 31.1798 38.3432 31.0269 37.8458 30.5247L38.4819 29.7999C38.7754 30.0921 39.1621 30.2561 39.5647 30.2592C39.9531 30.2592 40.1223 30.1522 40.1223 29.9886C40.1223 29.8645 40.0377 29.7942 39.8252 29.7267C39.6398 29.6679 39.3474 29.6162 39.1011 29.5395C38.5658 29.3737 38.0339 29.1376 38.0339 28.3361C38.0325 27.5942 38.6037 27.1392 39.5572 27.1392C40.0851 27.1392 40.6806 27.2533 41.1814 27.7241L40.5385 28.4308C40.2576 28.1438 39.8658 28.0405 39.5484 28.0405C39.2615 28.0405 39.1025 28.1474 39.1025 28.2959C39.1025 28.4194 39.1871 28.4918 39.4036 28.5665C39.5917 28.6303 39.903 28.6927 40.148 28.7667C40.6617 28.9202 41.1936 29.152 41.1936 29.9147C41.1963 30.7679 40.5162 31.1805 39.5674 31.1805V31.1798ZM22.3945 27.4069C22.1118 27.058 21.6952 26.8638 21.2617 26.8788C20.7913 26.8788 20.5457 27.0582 20.5457 27.3136C20.5457 27.6595 20.9172 27.7793 21.6284 27.991C22.4094 28.2242 23.2966 28.4875 23.2966 29.5789C23.2966 30.6703 22.4412 31.1748 21.3591 31.1748C20.4462 31.1748 19.7011 30.8985 19.222 30.2125L20.0544 29.4806C20.3717 29.9334 20.8543 30.1178 21.3456 30.1178C21.9296 30.1178 22.1428 29.9025 22.1428 29.6693C22.1428 29.3306 21.8044 29.2481 20.9849 29.0063C20.1417 28.7573 19.4094 28.4129 19.4094 27.3559C19.4094 26.4282 20.1261 25.824 21.2982 25.824C22.0426 25.824 22.7254 26.0335 23.2181 26.685L22.3945 27.4069ZM33.5959 27.1837C33.8089 27.1749 34.0147 27.2663 34.1582 27.4334L33.7109 28.4308C33.5998 28.3425 33.464 28.296 33.3252 28.2988C33.0409 28.2988 32.7973 28.5586 32.7973 29.0307V31.0786H31.6726V27.2569H32.7784V27.7929C32.976 27.4263 33.2284 27.1837 33.5959 27.1837ZM27.0992 28.5026V31.0786H25.9887V28.9188C25.9887 28.504 25.7789 28.25 25.408 28.25C25.0372 28.25 24.7847 28.4947 24.7847 28.9331V31.0786H23.6722V25.9122H24.7847V27.7707C25.0451 27.3953 25.4599 27.1758 25.8993 27.1809C26.5781 27.1809 27.0992 27.6516 27.0992 28.5026ZM31.3092 30.1924V31.0025C31.1009 31.0871 30.8797 31.1299 30.6568 31.1288C30.3502 31.1288 30.0423 31.0269 29.8982 30.6502C29.6572 30.9372 29.2072 31.1575 28.697 31.1575C27.9525 31.1575 27.4741 30.7543 27.4741 29.9865C27.4741 29.2352 28.048 28.786 28.9345 28.786C29.2288 28.7865 29.522 28.8251 29.8075 28.9008V28.776C29.8075 28.3454 29.5733 28.0914 29.0881 28.0914C28.761 28.1019 28.4478 28.2342 28.2036 28.4653L27.5946 27.7334C27.958 27.3846 28.5481 27.1249 29.2289 27.1249C30.2778 27.1249 30.9112 27.6602 30.9112 28.6626V30.0016C30.9112 30.1451 30.9789 30.2168 31.1258 30.2168C31.1883 30.2166 31.2505 30.2084 31.3112 30.1924H31.3092ZM29.8082 29.5373C29.6044 29.4837 29.3955 29.4551 29.1856 29.4519C28.8025 29.4519 28.613 29.6514 28.613 29.9248C28.613 30.1838 28.7809 30.3711 29.1247 30.3711C29.4887 30.3711 29.8082 30.14 29.8082 29.7899V29.5373ZM42.2391 30.7414C42.246 30.8456 42.2096 30.9478 42.1395 31.0213C42.0694 31.0948 41.9726 31.1322 41.8744 31.1238C41.6429 31.1238 41.5096 30.9703 41.5096 30.7414C41.5096 30.5125 41.645 30.3582 41.8744 30.3582C41.9727 30.3498 42.0697 30.3873 42.1398 30.4609C42.2099 30.5346 42.2462 30.637 42.2391 30.7414ZM42.1796 30.7414C42.1905 30.6187 42.135 30.5001 42.0362 30.4352C41.9375 30.3703 41.8126 30.3703 41.7139 30.4352C41.6151 30.5001 41.5596 30.6187 41.5705 30.7414C41.5705 30.9566 41.6957 31.0729 41.8771 31.0729C42.0584 31.0729 42.1796 30.9581 42.1796 30.7414ZM41.9481 30.7858L42.0158 30.9215H41.9427L41.8791 30.7966H41.7999V30.9215H41.7323V30.5447H41.8825C41.9698 30.5447 42.0178 30.5921 42.0178 30.6653C42.0232 30.7176 41.9946 30.7672 41.9481 30.7858ZM41.9515 30.6696C41.9515 30.6287 41.9305 30.6043 41.8838 30.6043H41.7993V30.737H41.8744C41.9244 30.737 41.9515 30.7205 41.9515 30.6696ZM22.2285 34.0736V32.5237H21.8955V34.0736H22.2285ZM27.7716 32.8861C27.4495 32.8861 27.1761 33.12 27.1761 33.4938C27.1761 33.8677 27.4468 34.1037 27.7716 34.1037C28.0965 34.1037 28.3672 33.8677 28.3672 33.4938C28.3672 33.12 28.0917 32.8861 27.7716 32.8861ZM27.7716 33.8002C27.6967 33.8009 27.6249 33.7681 27.574 33.7097C27.5232 33.6514 27.4978 33.573 27.5043 33.4938C27.4875 33.3818 27.5344 33.2697 27.6241 33.2079C27.7138 33.1461 27.8295 33.1461 27.9192 33.2079C28.0089 33.2697 28.0558 33.3818 28.0389 33.4938C28.0454 33.573 28.0201 33.6514 27.9692 33.7097C27.9183 33.7681 27.8466 33.8009 27.7716 33.8002ZM21.5274 33.2599C21.6478 33.2034 21.7246 33.0759 21.7223 32.9363C21.7223 32.7103 21.568 32.5237 21.2235 32.5237H20.561V34.0736H21.252C21.5984 34.0736 21.7649 33.8906 21.7649 33.6273C21.7716 33.4624 21.6748 33.3127 21.5274 33.2599ZM20.9082 32.8243H21.1836C21.2946 32.8243 21.3684 32.8767 21.3684 32.9815C21.3684 33.0862 21.302 33.148 21.1809 33.148H20.9055L20.9082 32.8243ZM21.208 33.7737H20.9082V33.435H21.208C21.3277 33.435 21.3995 33.4996 21.3995 33.6036C21.3995 33.7076 21.3311 33.7737 21.2053 33.7737H21.208ZM24.6593 33.1996C24.5673 32.9973 24.3967 32.8846 24.1389 32.8846C23.8337 32.8846 23.5617 33.0877 23.5617 33.4895C23.5617 33.8913 23.8012 34.0994 24.1342 34.0994C24.3683 34.0994 24.5653 34.0004 24.6573 33.7866L24.3866 33.6431C24.3422 33.7415 24.2465 33.8023 24.1437 33.7973C23.99 33.7973 23.8885 33.6804 23.8885 33.4924C23.8885 33.3044 24.0029 33.1903 24.1409 33.1903C24.2451 33.1863 24.3404 33.2516 24.3798 33.3539L24.6593 33.1996ZM29.567 33.1996C29.475 32.9973 29.3044 32.8846 29.0466 32.8846C28.7414 32.8846 28.4693 33.0877 28.4693 33.4895C28.4693 33.8913 28.7089 34.0994 29.0419 34.0994C29.276 34.0994 29.4729 34.0004 29.565 33.7866L29.2943 33.6431C29.2498 33.7415 29.1542 33.8023 29.0513 33.7973C28.8977 33.7973 28.7962 33.6804 28.7962 33.4924C28.7962 33.3044 28.9106 33.1903 29.0486 33.1903C29.1527 33.1863 29.2481 33.2516 29.2875 33.3539L29.567 33.1996ZM26.854 33.4795C27.0254 33.4019 27.1348 33.2213 27.1301 33.0238C27.1301 32.6894 26.8959 32.5215 26.5616 32.5215H25.9424V34.0714H26.2862V33.5505H26.4994L26.7762 34.0714H27.1748L26.854 33.4795ZM26.542 33.2412H26.2862V32.8315H26.542C26.7037 32.8315 26.7775 32.9033 26.7775 33.0375C26.7782 33.148 26.7017 33.2448 26.5427 33.2448L26.542 33.2412ZM23.4541 33.8153C23.4362 33.8194 23.4175 33.8141 23.404 33.8009C23.3906 33.7878 23.384 33.7685 23.3864 33.7493V33.3474C23.3864 33.0475 23.1962 32.8868 22.8815 32.8868C22.7033 32.8866 22.5308 32.9538 22.395 33.0762L22.579 33.2915C22.6523 33.2222 22.7462 33.1826 22.8443 33.1795C22.9898 33.1795 23.0602 33.2563 23.0602 33.3847V33.4221C22.9745 33.3993 22.8866 33.3877 22.7983 33.3876C22.5323 33.3876 22.3604 33.5225 22.3604 33.7464C22.3604 33.9703 22.5039 34.098 22.7272 34.098C22.8619 34.1014 22.992 34.0461 23.0873 33.9452C23.1252 34.041 23.2178 34.0993 23.3153 34.0887C23.3822 34.0887 23.4484 34.0758 23.5109 34.0506V33.8074C23.4928 33.814 23.4739 33.8181 23.4547 33.8196L23.4541 33.8153ZM23.0595 33.6861C23.0595 33.7909 22.9641 33.8605 22.8565 33.8605C22.7489 33.8605 22.7036 33.8045 22.7036 33.7263C22.7036 33.6481 22.7604 33.5828 22.8748 33.5828C22.9377 33.5838 23.0004 33.5922 23.0615 33.6079L23.0595 33.6861ZM30.7567 34.0693L30.3642 33.3482L30.731 32.9277H30.3608L29.9737 33.384V32.523H29.6482V34.0729H29.9785V33.7938L30.1368 33.6144L30.3845 34.0722L30.7567 34.0693ZM25.8531 34.0693L25.4606 33.3482L25.8287 32.9234H25.4525L25.0701 33.3797V32.5187H24.7405V34.0686H25.0701V33.7938L25.2278 33.6144L25.4755 34.0722L25.8531 34.0693ZM19.6948 32.9212L19.4972 33.6782L19.259 32.927H18.9016L19.3415 34.0851C19.3155 34.1499 19.2517 34.1882 19.1859 34.1784C19.1396 34.1778 19.0945 34.1631 19.0559 34.136L18.9355 34.3786C19.0118 34.4352 19.1029 34.465 19.196 34.4639C19.443 34.4639 19.5892 34.3204 19.6772 34.0478L20.0386 32.927L19.6948 32.9212ZM18.4144 32.8724C18.2968 32.8707 18.1832 32.9181 18.0984 33.0044V32.5237H17.76V34.0736H18.0875V33.9696C18.1705 34.061 18.2867 34.1099 18.4063 34.1037C18.6919 34.1037 18.9098 33.8648 18.9098 33.4866C18.9098 33.1085 18.7007 32.8724 18.4144 32.8724ZM18.3264 33.7938C18.2383 33.7969 18.1538 33.756 18.0984 33.6833V33.3037C18.1495 33.2281 18.2312 33.1824 18.319 33.1802C18.4652 33.1802 18.5748 33.2864 18.5748 33.4874C18.5748 33.6883 18.4773 33.7938 18.3264 33.7938Z" fill="black"/>
<path d="M57.68 18.618C57.19 18.618 56.77 18.212 56.77 17.708C56.77 17.204 57.19 16.798 57.68 16.798C58.184 16.798 58.59 17.204 58.59 17.708C58.59 18.212 58.184 18.618 57.68 18.618ZM56.952 26.5V19.738H58.422V26.5H56.952ZM59.769 25.184L60.679 23.924C61.323 24.61 62.331 25.212 63.633 25.212C64.977 25.212 65.509 24.554 65.509 23.938C65.509 23.098 64.515 22.846 63.381 22.552C61.855 22.174 60.063 21.726 60.063 19.752C60.063 18.212 61.421 17.022 63.465 17.022C64.921 17.022 66.097 17.484 66.965 18.324L66.027 19.542C65.299 18.814 64.305 18.478 63.325 18.478C62.359 18.478 61.743 18.94 61.743 19.64C61.743 20.368 62.695 20.606 63.801 20.886C65.341 21.278 67.175 21.754 67.175 23.784C67.175 25.338 66.083 26.668 63.563 26.668C61.841 26.668 60.595 26.066 59.769 25.184ZM73.2195 26.5V22.244C73.2195 21.194 72.6735 20.872 71.8475 20.872C71.1055 20.872 70.4615 21.32 70.1115 21.782V26.5H68.6415V17.162H70.1115V20.662C70.5595 20.13 71.4415 19.57 72.5055 19.57C73.9615 19.57 74.6895 20.326 74.6895 21.712V26.5H73.2195ZM80.7285 26.5V25.772C80.2245 26.346 79.4405 26.668 78.5445 26.668C77.4385 26.668 76.1925 25.926 76.1925 24.428C76.1925 22.874 77.4385 22.23 78.5445 22.23C79.4545 22.23 80.2385 22.524 80.7285 23.098V22.09C80.7285 21.306 80.0845 20.83 79.1465 20.83C78.3905 20.83 77.7325 21.11 77.1445 21.684L76.5425 20.662C77.3265 19.92 78.3065 19.57 79.3845 19.57C80.8825 19.57 82.1985 20.2 82.1985 22.02V26.5H80.7285ZM80.7285 24.96V23.938C80.3925 23.476 79.7625 23.238 79.1185 23.238C78.2925 23.238 77.6765 23.714 77.6765 24.456C77.6765 25.184 78.2925 25.66 79.1185 25.66C79.7625 25.66 80.3925 25.422 80.7285 24.96ZM84.1043 26.5V19.738H85.5743V20.732C86.0783 20.088 86.8903 19.584 87.7723 19.584V21.04C87.6463 21.012 87.4923 20.998 87.3103 20.998C86.6943 20.998 85.8683 21.418 85.5743 21.894V26.5H84.1043ZM88.5379 23.112C88.5379 21.152 89.9659 19.57 91.9679 19.57C93.9979 19.57 95.2999 21.124 95.2999 23.252V23.602H90.0779C90.1899 24.624 90.9599 25.464 92.2339 25.464C92.8919 25.464 93.6759 25.198 94.1519 24.722L94.8239 25.688C94.1519 26.332 93.1579 26.668 92.0799 26.668C90.0499 26.668 88.5379 25.254 88.5379 23.112ZM91.9679 20.774C90.7079 20.774 90.1339 21.74 90.0639 22.566H93.8719C93.8439 21.768 93.2979 20.774 91.9679 20.774ZM96.1628 25.618L96.8348 24.554C97.3108 25.044 98.2488 25.506 99.1308 25.506C100.013 25.506 100.461 25.184 100.461 24.68C100.461 24.092 99.7468 23.882 98.9208 23.7C97.7588 23.448 96.3728 23.14 96.3728 21.628C96.3728 20.522 97.3248 19.57 99.0328 19.57C100.181 19.57 101.049 19.976 101.665 20.522L101.049 21.558C100.643 21.096 99.8868 20.746 99.0468 20.746C98.2768 20.746 97.7868 21.026 97.7868 21.502C97.7868 22.02 98.4588 22.202 99.2568 22.384C100.433 22.636 101.875 22.972 101.875 24.568C101.875 25.758 100.881 26.668 99.0608 26.668C97.9128 26.668 96.8628 26.304 96.1628 25.618Z" fill="black"/>
<path d="M56.852 43.5V35.496H58.256V43.5H56.852ZM59.4415 42.372L60.2215 41.292C60.7735 41.88 61.6375 42.396 62.7535 42.396C63.9055 42.396 64.3615 41.832 64.3615 41.304C64.3615 40.584 63.5095 40.368 62.5375 40.116C61.2295 39.792 59.6935 39.408 59.6935 37.716C59.6935 36.396 60.8575 35.376 62.6095 35.376C63.8575 35.376 64.8655 35.772 65.6095 36.492L64.8055 37.536C64.1815 36.912 63.3295 36.624 62.4895 36.624C61.6615 36.624 61.1335 37.02 61.1335 37.62C61.1335 38.244 61.9495 38.448 62.8975 38.688C64.2175 39.024 65.7895 39.432 65.7895 41.172C65.7895 42.504 64.8535 43.644 62.6935 43.644C61.2175 43.644 60.1495 43.128 59.4415 42.372ZM70.9705 43.5V39.852C70.9705 38.952 70.5025 38.676 69.7945 38.676C69.1585 38.676 68.6065 39.06 68.3065 39.456V43.5H67.0465V35.496H68.3065V38.496C68.6905 38.04 69.4465 37.56 70.3585 37.56C71.6065 37.56 72.2305 38.208 72.2305 39.396V43.5H70.9705ZM77.4068 43.5V42.876C76.9748 43.368 76.3028 43.644 75.5348 43.644C74.5868 43.644 73.5188 43.008 73.5188 41.724C73.5188 40.392 74.5868 39.84 75.5348 39.84C76.3148 39.84 76.9868 40.092 77.4068 40.584V39.72C77.4068 39.048 76.8548 38.64 76.0508 38.64C75.4028 38.64 74.8388 38.88 74.3348 39.372L73.8188 38.496C74.4908 37.86 75.3308 37.56 76.2548 37.56C77.5388 37.56 78.6668 38.1 78.6668 39.66V43.5H77.4068ZM77.4068 42.18V41.304C77.1188 40.908 76.5788 40.704 76.0268 40.704C75.3188 40.704 74.7908 41.112 74.7908 41.748C74.7908 42.372 75.3188 42.78 76.0268 42.78C76.5788 42.78 77.1188 42.576 77.4068 42.18ZM80.3004 43.5V37.704H81.5604V38.556C81.9924 38.004 82.6884 37.572 83.4444 37.572V38.82C83.3364 38.796 83.2044 38.784 83.0484 38.784C82.5204 38.784 81.8124 39.144 81.5604 39.552V43.5H80.3004ZM84.1005 40.596C84.1005 38.916 85.3245 37.56 87.0405 37.56C88.7805 37.56 89.8965 38.892 89.8965 40.716V41.016H85.4205C85.5165 41.892 86.1765 42.612 87.2685 42.612C87.8325 42.612 88.5045 42.384 88.9125 41.976L89.4885 42.804C88.9125 43.356 88.0605 43.644 87.1365 43.644C85.3965 43.644 84.1005 42.432 84.1005 40.596ZM87.0405 38.592C85.9605 38.592 85.4685 39.42 85.4085 40.128H88.6725C88.6485 39.444 88.1805 38.592 87.0405 38.592ZM90.6362 42.744L91.2122 41.832C91.6202 42.252 92.4242 42.648 93.1802 42.648C93.9362 42.648 94.3202 42.372 94.3202 41.94C94.3202 41.436 93.7082 41.256 93.0002 41.1C92.0042 40.884 90.8162 40.62 90.8162 39.324C90.8162 38.376 91.6322 37.56 93.0962 37.56C94.0802 37.56 94.8242 37.908 95.3522 38.376L94.8242 39.264C94.4762 38.868 93.8282 38.568 93.1082 38.568C92.4482 38.568 92.0282 38.808 92.0282 39.216C92.0282 39.66 92.6042 39.816 93.2882 39.972C94.2962 40.188 95.5322 40.476 95.5322 41.844C95.5322 42.864 94.6802 43.644 93.1202 43.644C92.1362 43.644 91.2362 43.332 90.6362 42.744ZM99.5584 39.504C99.5584 36.996 101.442 35.364 103.758 35.364C105.318 35.364 106.338 36.108 106.986 37.032L105.834 37.68C105.414 37.08 104.658 36.612 103.758 36.612C102.174 36.612 100.998 37.824 100.998 39.504C100.998 41.184 102.174 42.408 103.758 42.408C104.574 42.408 105.294 42.024 105.654 41.688V40.44H103.266V39.204H107.058V42.204C106.266 43.08 105.15 43.656 103.758 43.656C101.442 43.656 99.5584 42.012 99.5584 39.504ZM111.1 43.644C109.264 43.644 108.124 42.264 108.124 40.596C108.124 38.94 109.264 37.56 111.1 37.56C112.96 37.56 114.088 38.94 114.088 40.596C114.088 42.264 112.96 43.644 111.1 43.644ZM111.1 42.528C112.18 42.528 112.78 41.628 112.78 40.596C112.78 39.576 112.18 38.676 111.1 38.676C110.032 38.676 109.432 39.576 109.432 40.596C109.432 41.628 110.032 42.528 111.1 42.528ZM115.363 43.5V35.496H116.623V43.5H115.363ZM122.337 43.5V42.708C121.893 43.284 121.221 43.644 120.477 43.644C118.989 43.644 117.897 42.516 117.897 40.608C117.897 38.736 118.977 37.56 120.477 37.56C121.197 37.56 121.869 37.896 122.337 38.508V35.496H123.597V43.5H122.337ZM122.337 41.76V39.456C122.049 39.024 121.437 38.676 120.837 38.676C119.841 38.676 119.205 39.48 119.205 40.608C119.205 41.724 119.841 42.528 120.837 42.528C121.437 42.528 122.049 42.192 122.337 41.76ZM130.256 43.5V36.732H127.832V35.496H134.084V36.732H131.66V43.5H130.256ZM134.336 43.5V37.704H135.596V38.556C136.028 38.004 136.724 37.572 137.48 37.572V38.82C137.372 38.796 137.24 38.784 137.084 38.784C136.556 38.784 135.848 39.144 135.596 39.552V43.5H134.336ZM142.408 43.5V42.732C141.988 43.2 141.268 43.644 140.356 43.644C139.108 43.644 138.496 42.996 138.496 41.808V37.704H139.756V41.352C139.756 42.252 140.212 42.528 140.92 42.528C141.556 42.528 142.108 42.168 142.408 41.772V37.704H143.668V43.5H142.408ZM144.8 42.744L145.376 41.832C145.784 42.252 146.588 42.648 147.344 42.648C148.1 42.648 148.484 42.372 148.484 41.94C148.484 41.436 147.872 41.256 147.164 41.1C146.168 40.884 144.98 40.62 144.98 39.324C144.98 38.376 145.796 37.56 147.26 37.56C148.244 37.56 148.988 37.908 149.516 38.376L148.988 39.264C148.64 38.868 147.992 38.568 147.272 38.568C146.612 38.568 146.192 38.808 146.192 39.216C146.192 39.66 146.768 39.816 147.452 39.972C148.46 40.188 149.696 40.476 149.696 41.844C149.696 42.864 148.844 43.644 147.284 43.644C146.3 43.644 145.4 43.332 144.8 42.744ZM152.704 43.644C151.732 43.644 151.216 43.116 151.216 42.156V38.808H150.256V37.704H151.216V36.12H152.476V37.704H153.652V38.808H152.476V41.844C152.476 42.24 152.668 42.528 153.028 42.528C153.268 42.528 153.496 42.432 153.592 42.324L153.892 43.272C153.664 43.488 153.292 43.644 152.704 43.644Z" fill="black" fill-opacity="0.3"/>
</svg>
