<svg width="177" height="60" viewBox="0 0 177 60" fill="none" xmlns="http://www.w3.org/2000/svg">
<rect width="177" height="60" rx="12" fill="#F9F9FA"/>
<rect x="12" y="12" width="36" height="36" rx="18" fill="white"/>
<path fill-rule="evenodd" clip-rule="evenodd" d="M30 18.75C23.7832 18.75 18.75 23.7832 18.75 30C18.75 36.2168 23.7832 41.25 30 41.25C36.2168 41.25 41.25 36.2168 41.25 30C41.25 23.7832 36.2168 18.75 30 18.75Z" fill="#65D26E"/>
<path fill-rule="evenodd" clip-rule="evenodd" d="M35.0634 34.8414C34.8584 35.1595 34.4241 35.2504 34.0864 35.0686C31.4207 33.5347 28.0675 33.1938 24.1112 34.0346C23.7252 34.1142 23.3513 33.8869 23.2669 33.5347C23.1824 33.1711 23.4237 32.8188 23.7976 32.7393C28.1157 31.8075 31.8308 32.2052 34.8222 33.9324C35.1599 34.1142 35.2564 34.5346 35.0634 34.8414Z" fill="white"/>
<path fill-rule="evenodd" clip-rule="evenodd" d="M36.3568 31.812C36.1032 32.2418 35.5598 32.3808 35.1371 32.1154C32.0817 30.1435 27.4202 29.5747 23.8093 30.725C23.3383 30.8514 22.8553 30.5354 22.7466 30.0424C22.6379 29.5873 22.8794 29.1197 23.29 28.9553C27.4202 27.6407 32.5527 28.2854 36.0549 30.5354C36.4776 30.8008 36.6104 31.3696 36.3568 31.812Z" fill="white"/>
<path fill-rule="evenodd" clip-rule="evenodd" d="M36.4788 28.6589C32.8294 26.4777 26.7953 26.2717 23.3146 27.3381C22.7485 27.5198 22.1584 27.2169 21.9777 26.6474C21.797 26.0778 22.1102 25.484 22.6642 25.3023C22.6762 25.3023 22.6883 25.3023 22.6883 25.2902C26.6869 24.0663 33.3473 24.3086 37.5507 26.817C38.0565 27.1199 38.2252 27.7743 37.9241 28.2833C37.623 28.7922 36.9726 28.9619 36.4788 28.6589Z" fill="white"/>
<path d="M56.392 25.184L57.302 23.924C57.946 24.61 58.954 25.212 60.256 25.212C61.6 25.212 62.132 24.554 62.132 23.938C62.132 23.098 61.138 22.846 60.004 22.552C58.478 22.174 56.686 21.726 56.686 19.752C56.686 18.212 58.044 17.022 60.088 17.022C61.544 17.022 62.72 17.484 63.588 18.324L62.65 19.542C61.922 18.814 60.928 18.478 59.948 18.478C58.982 18.478 58.366 18.94 58.366 19.64C58.366 20.368 59.318 20.606 60.424 20.886C61.964 21.278 63.798 21.754 63.798 23.784C63.798 25.338 62.706 26.668 60.186 26.668C58.464 26.668 57.218 26.066 56.392 25.184ZM66.7345 29.076H65.2645V19.738H66.7345V20.662C67.2385 19.99 68.0225 19.57 68.9045 19.57C70.6545 19.57 71.9005 20.886 71.9005 23.112C71.9005 25.338 70.6545 26.668 68.9045 26.668C68.0505 26.668 67.2805 26.29 66.7345 25.562V29.076ZM70.3745 23.112C70.3745 21.81 69.6325 20.872 68.4705 20.872C67.7845 20.872 67.0565 21.278 66.7345 21.782V24.456C67.0565 24.946 67.7845 25.366 68.4705 25.366C69.6325 25.366 70.3745 24.428 70.3745 23.112ZM76.4376 26.668C74.2956 26.668 72.9656 25.058 72.9656 23.112C72.9656 21.18 74.2956 19.57 76.4376 19.57C78.6076 19.57 79.9236 21.18 79.9236 23.112C79.9236 25.058 78.6076 26.668 76.4376 26.668ZM76.4376 25.366C77.6976 25.366 78.3976 24.316 78.3976 23.112C78.3976 21.922 77.6976 20.872 76.4376 20.872C75.1916 20.872 74.4916 21.922 74.4916 23.112C74.4916 24.316 75.1916 25.366 76.4376 25.366ZM83.441 26.668C82.307 26.668 81.705 26.052 81.705 24.932V21.026H80.585V19.738H81.705V17.89H83.175V19.738H84.547V21.026H83.175V24.568C83.175 25.03 83.399 25.366 83.819 25.366C84.099 25.366 84.365 25.254 84.477 25.128L84.827 26.234C84.561 26.486 84.127 26.668 83.441 26.668ZM86.6097 18.618C86.1197 18.618 85.6997 18.212 85.6997 17.708C85.6997 17.204 86.1197 16.798 86.6097 16.798C87.1137 16.798 87.5197 17.204 87.5197 17.708C87.5197 18.212 87.1137 18.618 86.6097 18.618ZM85.8817 26.5V19.738H87.3517V26.5H85.8817ZM89.6086 26.5V21.026H88.4886V19.738H89.6086V19.36C89.6086 17.848 90.5046 17.022 91.7506 17.022C92.2126 17.022 92.6326 17.12 92.9266 17.288L92.6046 18.366C92.4366 18.268 92.2266 18.226 92.0166 18.226C91.4426 18.226 91.0786 18.604 91.0786 19.36V19.738H92.4506V21.026H91.0786V26.5H89.6086ZM93.4953 27.83C93.6493 27.9 93.8873 27.942 94.0553 27.942C94.5173 27.942 94.8253 27.802 95.0213 27.354L95.3573 26.584L92.5853 19.738H94.1533L96.1273 24.806L98.1013 19.738H99.6833L96.4213 27.718C95.9593 28.866 95.1473 29.23 94.0973 29.244C93.8873 29.244 93.4813 29.202 93.2713 29.146L93.4953 27.83Z" fill="black"/>
<path d="M56.336 42.372L57.116 41.292C57.668 41.88 58.532 42.396 59.648 42.396C60.8 42.396 61.256 41.832 61.256 41.304C61.256 40.584 60.404 40.368 59.432 40.116C58.124 39.792 56.588 39.408 56.588 37.716C56.588 36.396 57.752 35.376 59.504 35.376C60.752 35.376 61.76 35.772 62.504 36.492L61.7 37.536C61.076 36.912 60.224 36.624 59.384 36.624C58.556 36.624 58.028 37.02 58.028 37.62C58.028 38.244 58.844 38.448 59.792 38.688C61.112 39.024 62.684 39.432 62.684 41.172C62.684 42.504 61.748 43.644 59.588 43.644C58.112 43.644 57.044 43.128 56.336 42.372ZM63.977 43.5V35.496H67.493C69.173 35.496 70.109 36.648 70.109 38.004C70.109 39.36 69.161 40.512 67.493 40.512H65.381V43.5H63.977ZM68.669 38.004C68.669 37.236 68.093 36.732 67.301 36.732H65.381V39.276H67.301C68.093 39.276 68.669 38.772 68.669 38.004ZM70.9178 39.504C70.9178 37.116 72.6098 35.364 75.0098 35.364C77.4098 35.364 79.1018 37.116 79.1018 39.504C79.1018 41.892 77.4098 43.644 75.0098 43.644C72.6098 43.644 70.9178 41.892 70.9178 39.504ZM77.6618 39.504C77.6618 37.848 76.6178 36.612 75.0098 36.612C73.3898 36.612 72.3578 37.848 72.3578 39.504C72.3578 41.148 73.3898 42.396 75.0098 42.396C76.6178 42.396 77.6618 41.148 77.6618 39.504ZM82.0569 43.5V36.732H79.6329V35.496H85.8849V36.732H83.4609V43.5H82.0569Z" fill="black" fill-opacity="0.3"/>
</svg>
